<?xml version="1.0" encoding="UTF-8" standalone="no"?>
<!-- Generator: Adobe Illustrator 25.2.3, SVG Export Plug-In . SVG Version: 6.00 Build 0)  -->

<svg
   version="1.1"
   id="Layer_1"
   x="0px"
   y="0px"
   viewBox="0 0 548.00594 194.43406"
   xml:space="preserve"
   sodipodi:docname="Carleton_Wordmark_Blue.svg"
   width="548.00592"
   height="194.43405"
   inkscape:version="1.1.2 (b8e25be8, 2022-02-05)"
   xmlns:inkscape="http://www.inkscape.org/namespaces/inkscape"
   xmlns:sodipodi="http://sodipodi.sourceforge.net/DTD/sodipodi-0.dtd"
   xmlns="http://www.w3.org/2000/svg"
   xmlns:svg="http://www.w3.org/2000/svg"><defs
   id="defs25" /><sodipodi:namedview
   id="namedview23"
   pagecolor="#ffffff"
   bordercolor="#666666"
   borderopacity="1.0"
   inkscape:pageshadow="2"
   inkscape:pageopacity="0.0"
   inkscape:pagecheckerboard="0"
   showgrid="false"
   inkscape:zoom="0.99387102"
   inkscape:cx="563.95648"
   inkscape:cy="109.67218"
   inkscape:window-width="1792"
   inkscape:window-height="1120"
   inkscape:window-x="0"
   inkscape:window-y="0"
   inkscape:window-maximized="0"
   inkscape:current-layer="g20" />
<style
   type="text/css"
   id="style2">
	.st0{fill:#003069;}
</style>
<g
   id="g20"
   transform="translate(-2.92,-2.7615038)">
	<path
   class="st0"
   d="m 325.77,164.04 c -3.41,15.18 -8.36,21.37 -14.87,21.37 -4.95,0 -7.12,-2.47 -7.12,-10.84 0,-21.06 0.93,-44.9 0.93,-60.7 0,-15.48 -2.48,-24.77 -10.22,-32.52 -8.36,-8.36 -21.06,-13.93 -41.18,-13.93 -18.89,0 -32.2,6.82 -40.88,14.87 -4.33,3.72 -7.43,9.6 -7.43,16.11 0,9.29 7.43,16.1 17.03,16.1 9.29,0 15.79,-6.5 15.79,-15.17 0,-10.53 -9.29,-11.77 -9.29,-14.24 0,-1.86 8.05,-7.74 21.37,-7.74 10.22,0 17.65,2.78 21.37,6.5 4.34,4.33 5.58,10.53 5.58,25.7 0,6.19 0,8.98 -0.31,12.08 -43.66,3.4 -61.31,11.46 -70.91,21.06 -6.5,6.5 -9.6,14.25 -9.6,23.22 0,18.89 21.37,31.59 39.02,31.28 16.1,0 29.11,-8.67 39.95,-20.75 4.03,12.7 13.32,20.75 29.11,20.75 16.41,0 26.94,-13.62 29.42,-31.58 -0.01,-1.26 -6.83,-2.49 -7.76,-1.57 z m -49.54,-11.15 c -0.31,7.43 -1.24,10.22 -2.48,12.7 -3.72,7.74 -20.44,19.2 -31.27,19.2 -11.46,0 -17.66,-8.05 -17.66,-20.12 0,-22.3 7.43,-30.04 51.71,-34.07 0,8.67 0,13.63 -0.3,22.29 z"
   id="path4" />
	<path
   class="st0"
   d="m 440.49,67.74 c -19.2,0 -30.65,16.1 -41.49,39.33 l -1.24,-0.31 c 0,-13.63 0.31,-25.09 0.62,-31.59 0.31,-3.41 -0.93,-4.64 -4.03,-4.64 -6.5,0 -28.8,0.93 -46.45,0.93 -1.86,0 -2.17,10.22 -0.31,10.22 15.48,0 19.2,0 20.44,1.24 1.55,1.24 3.1,8.36 3.1,26.63 0.31,15.48 0.31,48 0,58.84 0,9.6 -0.93,13.93 -1.86,14.86 -0.92,0.93 -3.09,0.93 -22.92,1.55 -1.23,0 -0.93,9.91 0,9.91 h 79.28 c 1.86,0 1.55,-10.22 -0.62,-10.22 -16.41,-0.62 -22.61,-0.93 -23.54,-1.86 -0.93,-0.93 -2.48,-8.98 -2.48,-23.23 v -21.37 c 0,-9.6 2.17,-18.27 8.05,-30.03 7.74,-15.49 17.34,-27.56 28.49,-27.56 4.03,0 5.89,1.23 5.89,2.48 0,1.86 -7.43,6.5 -7.43,16.11 0,9.29 7.12,14.55 16.1,14.55 9.91,0 18.89,-8.67 18.89,-21.06 0,-13.94 -10.83,-24.78 -28.49,-24.78 z"
   id="path6" />
	<path
   class="st0"
   d="m 550.21,185.41 c -18.58,-0.62 -20.13,-0.93 -21.68,-2.78 -1.86,-1.54 -2.48,-5.27 -2.48,-11.46 0.31,-23.85 0.93,-46.45 0.93,-77.73 0,-33.44 0,-40.28 0.31,-72.49 0,-3.1 -1.24,-5.27 -4.02,-5.27 -17.96,0.31 -29.11,0.31 -46.76,0 -2.48,0 -2.17,8.67 -0.62,9.29 17.65,0.62 20.44,0.93 21.68,1.86 0.92,0.93 0.92,2.17 0.92,8.98 0.62,31.9 0.62,35.95 0.62,78.38 0,19.82 -0.62,48.93 -0.93,63.17 0,3.41 -0.31,4.65 -1.24,5.57 -1.24,1.24 -3.4,1.24 -20.43,1.55 -0.93,0 -1.24,9.6 -0.31,9.6 28.49,0 46.45,0 74.01,0.93 1.24,0 0.62,-9.6 0,-9.6 z"
   id="path8" />
	
	
	
	
	<path
   class="st0"
   d="m 167.39,140.47 c 0.31,-1.24 -8.61,-4.31 -9.08,-2.82 -3.77,11.88 -8.98,20.86 -17.64,29.49 -11.17,11.13 -22.24,17.34 -41.74,17.34 -24.78,0 -41.5,-10.22 -48.93,-25.7 -6.81,-13.31 -9.91,-29.72 -9.91,-53.26 0,-26.94 3.41,-44.28 12.7,-62.87 C 59.6,28.72 74.46,15.4 99.85,15.4 c 18.58,0 28.8,4.33 36.54,12.08 8.98,8.98 16.41,26.01 22.61,47.07 0.31,1.24 8.05,1.24 8.05,0 -0.31,-16.11 -0.31,-48.93 1.24,-69.98 0,-1.86 -7.74,-2.48 -8.36,-0.93 -5.58,9.91 -8.67,12.7 -11.15,12.7 -4.02,0 -17.96,-12.08 -48.62,-12.08 -29.42,0 -51.4,14.56 -68.75,31.59 -18.89,19.2 -28.49,44.9 -28.49,70.61 0,27.25 12.69,49.55 26.63,63.48 15.79,15.79 36.54,26.94 65.03,26.94 19.81,0 32.4,-4.67 43.29,-12.92 l -0.02,0.02 c 0,0 4.43,-3.53 11.04,-1.96 4.47,1.06 5.57,2.79 11.15,12.7 0.62,1.55 8.36,0.93 8.36,-0.93 -1.53,-21.07 -1.32,-37.21 -1.01,-53.32 z"
   id="path18" />
</g>
</svg>
