<?xml version="1.0" encoding="utf-8"?>
<!-- Generator: Adobe Illustrator 25.2.3, SVG Export Plug-In . SVG Version: 6.00 Build 0)  -->
<svg version="1.1" id="Artwork" xmlns="http://www.w3.org/2000/svg" xmlns:xlink="http://www.w3.org/1999/xlink" x="0px" y="0px"
	 viewBox="0 0 1000 1000" style="enable-background:new 0 0 1000 1000;" xml:space="preserve">
<style type="text/css">
	.st0{fill:#003069;}
</style>
<g>
	<g>
		<polygon class="st0" points="768.77,238.16 768.77,238.16 768.77,238.16 		"/>
		<polygon class="st0" points="127.25,454.84 127.25,454.84 127.25,454.84 		"/>
		<polygon class="st0" points="875.28,524.34 875.28,524.34 875.28,524.34 		"/>
		<polygon class="st0" points="97.96,526.59 97.96,526.59 97.96,526.59 		"/>
		<path class="st0" d="M139.59,385.8c-0.66,0-0.84,0.35-0.88,0.54c-1.49,5.94-1.96,6.69-2.93,7.32c-1.13,0.72-2.59,1.2-7.41,1.82
			c-30.3,4.18-43.75,5.94-53.25,6.95c-0.95,0.03-1.28,0.85-1.68,2.79c-0.21,0.98-0.52,2.72-0.23,3.46l0.07,0.18l0.16,0.11
			c14.59,9.52,27.15,18.65,43.91,31.19c3.81,2.95,5.46,4.5,6.31,5.95c1.04,1.5,1.1,2.99,0.32,7.98l-0.05,0.31l0.18,0.22
			c0.4,0.49,2.74,0.85,3.13,0.85c0.57,0,0.72-0.35,0.76-0.54c1.21-6.67,3.28-16.54,4.64-21.52l0.04-0.34l-0.18-0.23
			c-0.43-0.53-2.55-0.97-3.12-0.97c-0.63,0-0.78,0.38-0.81,0.51c-1.46,5.16-1.98,6.28-2.95,6.28c-0.17,0-0.37-0.03-0.63-0.08
			c-1-0.22-2.49-1.07-4.05-1.96c-2.41-1.52-3.91-2.56-6.21-4.28c-0.28-0.19-0.25-0.3-0.23-0.43c0.47-2.69,1.09-5.55,1.81-8.86
			c1.52-7.1,2.96-12.89,3.59-15.31c4.62-0.67,7.7-0.96,9.97-1.17l0.29-0.03c0.65-0.08,1.17-0.12,1.6-0.12
			c1.11,0,1.28,0.27,1.37,0.42c0.26,0.4,0.4,1.13-0.45,6.41l-0.03,0.33l0.18,0.22c0.43,0.52,2.43,0.82,2.99,0.82
			c0.73,0,0.95-0.33,1.01-0.62c0.76-4.17,1.3-6.64,2.05-10.04c0.29-1.31,0.61-2.75,0.98-4.49c0.59-2.72,1.05-4.56,1.59-6.7
			c0.39-1.54,0.82-3.23,1.36-5.52l0.04-0.34l-0.18-0.23C142.25,386.13,140.09,385.8,139.59,385.8z M115.11,408.23
			c-1.25,5.74-3.44,15.06-4.95,20.81c-2.32-1.65-4.55-3.26-6.83-4.9c-5.13-3.7-10.44-7.52-17.35-12.27
			C95.66,410.61,108.52,409.02,115.11,408.23z M127.25,454.84L127.25,454.84L127.25,454.84L127.25,454.84z"/>
		<path class="st0" d="M168.34,304.47h-0.21c-0.78,0-2.58,1.3-2.99,2.04c-0.24,0.44-0.12,0.76,0,0.95c2.92,4.03,4.25,6.4,3.41,8.17
			c-0.52,1.11-1.21,1.72-3.3,1.72c-1.79,0-4.49-0.43-9.3-1.47c-8.25-1.75-13.15,1.04-18.6,6.64c2.36-9.14,0.62-19.77-7.45-23.57
			c-2.81-1.33-5.92-1.51-8.6-0.54c-5.96,2.14-11.17,7.86-15.48,17c-1.28,2.7-2.83,6.08-4.21,9.07c-0.92,1.99-1.75,3.8-2.37,5.13
			c-1.61,3.41-3.13,6.63-6.6,13.76c-0.08,0.17-0.18,0.52,0.09,0.94c0.51,0.81,2.33,1.6,3.11,1.6c0.53,0,0.73-0.31,0.79-0.44
			c2.82-5.81,3.77-7.77,4.06-7.87c0.04-0.01,0.09-0.03,0.18-0.03c0.51,0,1.69,0.43,3.5,1.29c0.49,0.23,1.91,0.89,3.91,1.82
			c3.53,1.63,8.88,4.11,14.18,6.59c1.2,0.57,2.77,1.33,5,2.41c3.62,1.75,8.98,4.34,17.38,8.37c2.54,1.2,2.95,1.65,2.98,1.69
			c0.02,0.75-2.44,6.38-3.25,8.22c-0.11,0.23-0.09,0.5,0.06,0.74c0.44,0.7,2.65,1.64,3.39,1.64c0.48,0,0.66-0.29,0.72-0.42
			c4.94-11.19,12.06-25.59,12.8-26.92c0.1-0.22,0.08-0.48-0.06-0.71c-0.39-0.62-2.52-1.69-3.36-1.69c-0.49,0-0.69,0.3-0.74,0.4
			c-3.2,6.04-4.32,8.08-4.61,8.22c-0.21,0-0.81-0.28-1.88-0.77c-0.65-0.31-1.99-0.97-3.75-1.83c-4.09-2-10.26-5.01-15.27-7.37
			l3.65-7.75c1.91-4.06,4.12-5.58,8.14-5.58c1.64,0,3.62,0.26,6.04,0.79c8.16,1.84,12.07,2.05,15.62,0.78
			c3.24-1.17,5.74-3.57,7.41-7.12c2.05-4.34,0.77-9.31-4.03-15.63L168.34,304.47z M130.6,331.6c-1.11,2.34-2.3,4.69-2.86,5.71
			l-19.63-9.26c-1.29-0.61-2.32-1.09-2.43-1.23c0-0.36,0.96-2.4,3.53-7.84c3.8-8.09,6.43-9.76,9.44-9.83l0.28,0
			c2.02,0,3.88,0.49,6.44,1.71c3.37,1.59,5.45,3.07,6.95,4.96C135.48,319.79,133.36,325.75,130.6,331.6z"/>
		<path class="st0" d="M216.88,253.73c-4.25-3.74-12.23-10.21-17.85-14.63c-0.13-0.1-0.3-0.16-0.47-0.16
			c-0.81,0-1.75,1.31-2.01,1.76c-0.12,0.21-0.48,0.84-0.14,1.42c8.79,10.96,10.23,14.27,10.47,16.06c0.27,2.05-1.26,4.47-6,10.69
			c-3.16,4.14-5.03,6.3-5.47,6.4c-0.55-0.1-3.09-2.03-6.6-4.7l-0.56-0.42c-16.89-12.88-19.64-14.99-24.51-18.82
			c-4.98-3.89-9.12-7.15-9.4-7.68c0.01-0.51,2.32-3.58,5.11-7.24c0.16-0.21,0.18-0.48,0.05-0.74c-0.25-0.52-2.26-2.27-2.96-2.27
			l-0.35,0.02l-9.01,11.82c-1.47,1.93-3.1,3.98-4.68,5.96c-1.47,1.85-2.91,3.66-4.21,5.35c-0.07,0.1-0.22,0.37-0.03,0.74
			c0.27,0.53,2.25,2.25,2.95,2.25l0.35-0.02l0.18-0.24c1.4-1.84,4.69-6.14,5.26-6.21c0.79,0.04,5.64,3.75,7.46,5.14
			c5.79,4.42,11.45,8.87,16.92,13.18c3.81,3,7.63,6,11.52,9.02l0.76,0.6c3.02,2.39,4.69,3.7,4.82,4.05
			c-0.03,0.27-0.83,1.37-2.3,3.38c-0.67,0.92-1.52,2.09-2.57,3.55l-0.22,0.39l0.17,0.34c0.24,0.5,2.33,2.33,3.04,2.33l0.35-0.02
			l0.18-0.25c3.66-4.96,7.09-9.46,13.9-18.37c6.23-8.18,11.01-14.43,15.82-20.42c0.4-0.52,0.57-0.98,0.51-1.41
			C217.34,254.22,217.15,253.93,216.88,253.73z"/>
		<path class="st0" d="M260.2,183.63c-0.14-0.17-0.35-0.26-0.58-0.26c-0.84,0-2.23,1.43-2.54,1.91c-0.07,0.11-0.29,0.44-0.1,0.86
			c5.74,10.24,6.78,14.8,6.63,16.8c-0.16,1.43-0.83,2.63-4.24,5.59l-7.75,6.74c-4.73,4.11-5.9,4.55-6.15,4.56
			c-0.56-0.2-3.53-3.54-10.4-11.44l-0.65-0.75c-1.77-2.04-3.93-4.54-5.53-6.49c1.38-1.39,2.95-2.76,4.35-3.99l0.16-0.14
			c3.79-3.29,5.15-4.29,5.84-4.29c0.04,0,0.08,0,0.18,0.02c0.94,0.06,2.61,1.07,8.27,5.99l0.23,0.23l0.28,0
			c0.72,0,2.3-1.67,2.54-2.21c0.21-0.45,0.02-0.75-0.1-0.89c-4.94-5-11.69-12.91-16.49-18.67c-0.15-0.17-0.35-0.26-0.59-0.26
			c-0.78,0-1.89,1.11-2.21,1.49c-0.41,0.49-0.57,0.88-0.51,1.23l0.02,0.14l0.09,0.12c3.64,4.9,4.29,6.35,4.23,7.29
			c-0.2,1.46-1.78,3.46-4.85,6.13l-0.34,0.3c-2.35,2.03-3.01,2.6-4.45,3.76l-6.95-8c-2.2-2.54-6.69-7.7-7.29-8.75
			c0.43-0.6,2.06-2.02,7.23-6.51c7.48-6.5,8.25-7.02,10.66-6.84c1.93,0.13,5.83,1.46,13.38,6.98c0.1,0.08,0.27,0.17,0.52,0.17
			c0.78,0,1.98-1.02,2.35-1.45c0.18-0.21,0.38-0.49,0.33-0.83l-0.02-0.15l-0.09-0.12c-2.02-2.68-4.47-5.88-6.93-9.07
			c-1.64-2.14-3.29-4.28-4.77-6.22c-0.13-0.2-0.52-0.8-1.18-0.8c-0.31,0-0.6,0.13-0.92,0.41c-6.33,6-12.22,11.14-17.93,16.11
			l-0.47,0.41c-3.52,3.05-16.71,14.38-20.32,17.25c-0.13,0.12-0.33,0.39-0.14,0.88c0.15,0.39,1.5,2.57,2.43,2.57h0l0.17-0.02
			l0.14-0.11c3.83-3.05,6.14-4.82,6.62-4.83c0.4,0.12,1.97,1.88,5.09,5.37l1.05,1.17c3.48,4.01,6.66,7.63,9.67,11.04
			c2.65,3.02,5.17,5.87,7.62,8.7c8.98,10.35,10.48,12.7,10.57,13.12c-0.03,0.39-2.42,2.6-6.34,6.19c-0.08,0.07-0.34,0.34-0.16,0.8
			c0.12,0.31,1.96,2.9,2.7,2.9l0.25-0.01l0.17-0.16c6.62-6.01,10.22-9.15,19.66-17.36l0.86-0.74c7.53-6.53,12.98-11.26,20.23-17.43
			c0.29-0.25,1.06-0.92,0.28-1.82C270.03,195.42,264.89,189.18,260.2,183.63z"/>
		<path class="st0" d="M332.33,161.44l-0.16,0.01l-0.12,0.06c-6.59,3.1-8.71,4.09-9.46,4.09c-0.06,0-0.12-0.01-0.23-0.04
			c-0.52-0.1-1.34-1.42-2.86-4.16c-6.1-11-11.45-20.83-17.34-31.87l-0.96-1.81c-2.71-5.13-3.84-7.26-4.01-7.75
			c0.27-0.21,0.99-0.68,2.82-1.69c3.79-2.1,5.74-2.89,7.22-2.89c0.36,0,0.7,0.05,1.04,0.14c3.2,0.92,11.16,8.93,13.79,11.58
			l0.27,0.2h0.25c0.6,0,2.17-0.85,2.53-1.46c0.15-0.25,0.16-0.53,0.04-0.76c-3.94-7.46-6.72-12.15-9.94-17.58l-0.74-1.25
			c-0.41-0.77-1.22-0.86-2.36-0.07c-7.81,4.8-15.47,9.24-22.75,13.19c-8.06,4.36-20.45,11.02-22.79,12.2
			c-0.36,0.2-0.62,0.53-0.74,0.96c-0.14,0.49-0.08,1.07,0.12,1.42c0.71,1.38,1.42,2.76,2.16,4.19c2.14,4.13,4.56,8.8,7.6,15.05
			c0.06,0.11,0.25,0.38,0.69,0.38c0.7,0,2.12-0.83,2.48-1.27c0.21-0.26,0.21-0.49,0.18-0.65c-1.48-6.77-2.68-15.47-1.81-18.56
			c0.54-1.86,1.51-3.14,5.55-5.39c1.01-0.56,3.58-1.99,4.23-2.16c0.36,0.39,1.43,2.32,3.81,6.59c1.72,3.11,3.28,5.9,4.75,8.52
			c4.6,8.22,8.24,14.72,13.03,24.14c3.02,5.92,2.88,7.23,2.9,7.23h0c-0.27,0.39-3.35,2.3-8.75,5.62c-0.15,0.08-0.49,0.34-0.33,0.97
			c0.11,0.44,1.23,2.83,2.17,2.83l0.21-0.01l0.14-0.09c9.53-5.73,17.7-10.42,29.02-16.11c0.23-0.13,0.47-0.42,0.31-1.06
			C334.26,164.16,333.28,161.44,332.33,161.44z"/>
		<path class="st0" d="M403.23,83.36c-7.9-4.2-16.06-5.11-24.22-2.7c-10.4,3.06-16.92,8.27-21.83,17.44
			c-4.02,7.38-5.09,15.82-2.93,23.16c2.73,9.23,7.07,15.05,14.08,18.87c5.02,2.73,10.91,4.23,16.57,4.23c3.05,0,6.04-0.43,8.88-1.26
			c8.49-2.51,15.76-8.36,19.95-16.05c4.35-7.98,5.49-17.66,3.05-25.9C414.46,93.25,409.52,86.78,403.23,83.36z M406.12,124.08
			c-1.21,7.06-5.89,11.99-13.52,14.25c-2.05,0.6-4.12,0.91-6.16,0.91c-4.71,0-8.9-1.68-11.78-4.73c-2.76-3.03-5.01-7.7-7.07-14.7
			c-2.65-9.01-3.42-15.24-2.49-20.2c1.14-6.57,6.34-12.13,13.25-14.17c2.71-0.8,5.21-1.21,7.44-1.21c4.15,0,7.47,1.37,10.15,4.19
			c3.47,3.73,6.19,9.25,8.59,17.36C407.02,114.31,406.77,120.44,406.12,124.08z"/>
		<path class="st0" d="M505.92,63.22C505.92,63.22,505.92,63.22,505.92,63.22c-3.06,0.39-6.05,0.68-8.9,0.86
			c-3.68,0.23-10.8,0.42-14.22,0.51l-0.74,0.02c-0.92,0.07-0.87,1.48-0.85,1.94c0.05,1.44,0.41,2.16,1.07,2.16
			c3.67,0.03,7.53,0.15,8.26,0.8c1.42,1.25,2.35,6.93,3.11,18.96c0.22,3.61,0.42,7.2,0.62,10.72c0.17,3.08,0.34,6.11,0.52,9.05
			c-4.41-5.55-8.9-11.14-13.25-16.55c-5.88-7.32-11.44-14.23-16.77-21.02c-2.79-3.65-3.61-4.54-4.42-4.75l-0.1-0.03l-3.76,0.31
			c-3.41,0.28-6.11,0.5-8.27,0.64c-1.24,0.08-2.49,0.14-3.83,0.2c-1.54,0.07-3.21,0.15-5.12,0.27c-0.66,0.04-0.98,0.8-0.94,2.27
			c0.04,1.34,0.39,2.02,1.07,2.02h0c5.43-0.14,8.17,0.29,9.46,1.53l0.08,0.06c0.31,0.21,0.38,0.28,0.43,0.99
			c0.47,7.47,1.11,15.29,1.67,22.19c0.47,5.67,0.9,11.02,1.17,15.2c0.51,8.04-0.36,11.2-0.98,11.83c-0.53,0.6-2.27,1-8.03,1.83
			c-0.8,0.03-0.78,1.11-0.77,1.57c0.04,1.8,0.4,2.72,1.08,2.72c0,0,0,0,0,0l0.07,0c4-0.47,6.5-0.72,11.7-1.04
			c5.33-0.35,8.34-0.53,13.26-0.54c0.82-0.05,0.87-1.19,0.89-1.62c0.03-0.76,0.01-2.54-0.99-2.69c-4.9-0.3-8.44-0.51-8.89-0.97
			c-0.87-0.77-1.32-4.54-1.75-9.96l-0.54-6.18c-0.89-10.12-1.81-20.58-2.43-30.1c12.58,14.94,32.88,39.87,40.21,50.45l0.1,0.11
			c0.43,0.38,0.94,0.46,1.58,0.46c0.24,0,0.53-0.01,0.87-0.04c2.76-0.17,4.06-0.37,4.02-1.46c-0.15-2.32-0.37-4.52-0.61-6.84
			c-0.28-2.73-0.59-5.83-0.83-9.66c-0.23-3.62-0.37-6.65-0.52-9.86c-0.14-3.13-0.29-6.36-0.53-10.16
			c-0.29-4.66-1.19-18.83,0.08-20.29c0.44-0.59,2.59-1.05,7.31-1.94c0.73-0.05,0.7-0.95,0.68-1.34
			C507.17,65.06,507,63.22,505.92,63.22z"/>
		<path class="st0" d="M124.48,484.05l-1.05-1.3c-0.01-0.01-0.95-1.2-0.51-3.05c0.27-1.15,0.68-1.42,3.72-3.15
			c0.95-0.36,0.63-2.23,0.6-2.44c-0.21-1.16-0.72-1.4-1.15-1.4c0,0,0,0,0,0c-3.59,0.25-7.04,0.36-10.84,0.36
			c-2.13,0-4.17-0.04-6.2-0.07l-0.1,0c-1.09,0-1.6,2.82-1.61,2.84c-0.13,0.89,0.22,1.18,0.52,1.27c3.86,1.21,6.63,2.87,9.27,5.56
			c3.32,3.31,5.38,6.65,5.4,13c-0.03,7.35-2.85,12.76-7.96,15.23c-4.24,2.15-9.43,3.1-16.91,3.1c-8.7-0.01-14.11-1.11-19.97-4.06
			c-2.54-1.24-8.44-5.15-8.43-14.62c0.02-5.38,1.14-8.77,3.74-11.35c2.59-2.58,7.61-4.98,14.89-7.12c0.94-0.23,0.76-2.19,0.72-2.58
			c-0.03-0.3-0.14-1.2-0.88-1.21c-1.6,0.03-3.73,0.06-6.09,0.06c-3.83,0-11.06-0.06-16.44-0.47c-0.39,0-0.89,0.24-1.11,1.39
			c-0.04,0.21-0.36,2.09,0.51,2.42c2.49,1.42,3.76,2.46,3.78,3.06c0,0.21-0.32,0.86-0.62,1.5c-1.15,2.37-3.28,6.78-3.29,14.19
			c-0.02,8.21,3.26,15.38,10.33,22.58c6.12,6.03,14.35,9.36,23.16,9.38h0.03c10.94,0,18.23-6.11,20.85-8.74
			c5.98-5.96,8.89-12.95,8.89-21.36c0.01-5.36-1.05-9.46-3.41-13.08L124.48,484.05z M97.96,526.59L97.96,526.59L97.96,526.59
			L97.96,526.59z"/>
		<path class="st0" d="M733.73,141.62c-2.43-8.61-7.41-15.12-14.79-19.35c-6.08-3.48-11.87-5.18-17.69-5.18
			c-3.16,0-6.42,0.48-9.98,1.48c-8.11,2.2-14.94,7.27-18.74,13.9c-4.79,8.34-5.98,15.49-3.88,23.19
			c2.36,8.72,7.98,16.17,15.44,20.44c5.09,2.92,10.86,4.46,16.69,4.46c2.95,0,5.88-0.39,8.69-1.15c8.75-2.38,16.53-8.24,20.79-15.7
			C734.34,156.59,735.61,148.55,733.73,141.62z M725.02,139.86c-0.29,5.07-2.38,10.85-6.6,18.2c-4.39,7.69-8.99,11.75-12.08,13.8
			c-5.9,3.97-12.8,4-19.64,0.08c-6.34-3.63-9.94-9.46-9.64-15.58c0.28-4.08,2.16-9.07,5.72-15.27c4.66-8.14,8.62-13,12.86-15.76
			c2.74-1.85,6.18-2.87,9.68-2.87c3.33,0,6.68,0.91,9.7,2.64C722.03,129.1,725.3,133.93,725.02,139.86z"/>
		<path class="st0" d="M785.87,220.78c-0.3-0.67-1.59-2-2.44-2c-0.13,0-0.25,0.03-0.44,0.12c-11.67,7.86-15.08,9-16.86,9.09l-0.18,0
			c-2.03,0-4.38-1.8-9.98-6.87c-4.83-4.36-5.89-5.7-5.92-5.97c0.16-0.57,2.61-3.28,5.72-6.71c13.97-15.47,16.49-18.25,20.79-22.85
			c4.05-4.37,7.88-8.5,8.45-8.73c0.51,0.06,3.38,2.62,6.77,5.68l0.21,0.19h0.25c0.74,0,2.54-2.06,2.74-2.59
			c0.13-0.35,0-0.64-0.16-0.77l-10.79-9.76c-1.77-1.6-3.64-3.36-5.44-5.05c-1.79-1.68-3.48-3.28-5.08-4.72l-0.21-0.17h-0.24
			c-0.76,0-2.57,2.14-2.74,2.58c-0.17,0.44,0.08,0.71,0.16,0.78c2.83,2.56,5.73,5.25,5.76,5.76c-0.11,0.77-4.21,5.3-5.76,7
			c-4.86,5.38-9.75,10.63-14.48,15.7c-3.32,3.57-6.65,7.14-10,10.79l-0.8,0.85c-2.55,2.71-3.96,4.21-4.29,4.31
			c-0.26-0.05-1.3-0.94-3.18-2.57c-0.86-0.75-1.95-1.69-3.33-2.86l-0.21-0.16h-0.22c-0.77,0-2.65,2.22-2.82,2.67
			c-0.13,0.35,0,0.64,0.17,0.78c4.66,4.08,8.83,7.85,17.14,15.36l1.81,1.64c6.75,6.12,12.09,10.96,17.2,15.82
			c0.47,0.42,0.9,0.63,1.31,0.63c0.25,0,0.63-0.08,0.94-0.44c4.04-3.89,11.16-11.31,16.06-16.57
			C785.91,221.62,786.1,221.29,785.87,220.78z M768.77,238.16L768.77,238.16L768.77,238.16L768.77,238.16z"/>
		<path class="st0" d="M835.01,281.84c-0.21-0.66-1.23-2.29-2.14-2.29l-0.17,0.01l-0.11,0.05c-10.4,4.36-15.88,5.99-18.32,5.62
			c-2.03-0.3-4.03-2.54-8.62-8.7c-3.88-5.23-4.65-6.75-4.63-7.03c0.26-0.53,3.04-2.59,6.89-5.46
			c16.79-12.49,19.72-14.67,24.86-18.36c5.1-3.72,9.38-6.8,9.99-6.92c0.48,0.15,2.69,3.09,5.54,6.91l0.25,0.26h0.3
			c0.72,0,2.82-1.55,3.09-2.08l0.19-0.43l-8.93-11.98c-1.4-1.88-2.86-3.94-4.27-5.92c-1.45-2.04-2.82-3.97-4.12-5.71l-0.24-0.28
			h-0.32c-0.66,0-2.8,1.52-3.09,2.09l-0.18,0.43l0.22,0.3c1.5,2.02,4.61,6.21,4.53,6.77c-0.26,0.74-5.16,4.38-7,5.74
			c-5.93,4.41-11.85,8.68-17.57,12.81c-3.86,2.78-7.72,5.56-11.62,8.41l-0.71,0.51c-3.18,2.29-4.93,3.55-5.3,3.58
			c-0.24-0.09-1.05-1.14-2.53-3.03c-0.72-0.92-1.63-2.09-2.78-3.55l-0.24-0.28h-0.31c-0.66,0-2.89,1.59-3.17,2.16l-0.17,0.42
			l0.23,0.3c3.46,4.5,6.6,8.7,12.28,16.34l1.54,2.07c5.75,7.72,10.71,14.39,15.25,20.83c0.44,0.61,0.89,0.9,1.39,0.9
			c0.28,0,0.55-0.1,0.77-0.27c4.78-3.06,13.16-8.92,18.98-13.13C834.95,282.82,835.23,282.5,835.01,281.84z"/>
		<path class="st0" d="M871.45,355.89c-0.06-0.26-0.85-2.65-1.78-2.65l-0.15,0.02c-6.19,1.45-11.02,2.19-14.36,2.19
			c-1.55,0-2.77-0.16-3.61-0.47c-1.32-0.55-2.29-1.54-4.2-5.64l-4.31-9.32c-2.64-5.72-2.74-6.94-2.68-7.15
			c0.35-0.49,4.57-2.5,13.9-6.82c2.92-1.36,6.19-2.87,8.66-3.93c0.94,1.7,1.81,3.56,2.7,5.47c2.22,4.79,2.75,6.28,2.44,6.97
			c-0.33,0.89-1.76,2.21-8.06,6.28c-0.15,0.07-0.48,0.32-0.33,0.94c0.05,0.22,0.99,2.77,1.97,2.77l0.19-0.01l0.14-0.07
			c6.16-3.36,15.63-7.64,22.51-10.64c0.21-0.1,0.54-0.37,0.43-1.09c-0.11-0.67-0.93-2.68-1.88-2.79l-0.14-0.02l-0.13,0.05
			c-4.03,1.51-6.25,2.15-7.4,2.15c-0.3,0-0.55-0.04-0.77-0.13c-1.33-0.56-2.81-2.64-4.52-6.35l-0.22-0.47
			c-1.29-2.77-1.65-3.55-2.35-5.25l9.61-4.45c2.81-1.3,9.24-4.29,10.43-4.56c0.44,0.55,1.31,2.43,4.08,8.41l0.16,0.34
			c4.17,8.99,4.45,9.9,3.63,12.14c-0.96,2.58-4.67,6.46-10.43,10.91c-0.47,0.34-0.37,1.01-0.26,1.47c0,0.02,0.52,2.06,1.39,2.18
			l0.15,0.02l0.14-0.05c3.08-1.17,6.76-2.62,10.45-4.07c2.57-1.01,5.15-2.02,7.48-2.93c0.35-0.11,0.85-0.31,1.06-0.79
			c0.14-0.33,0.12-0.7-0.09-1.13c-4.24-8.17-7.84-15.97-10.74-22.24c-1.92-4.14-9.19-20.09-10.93-24.3
			c-0.06-0.12-0.24-0.39-0.69-0.39c-0.45,0-3.12,0.74-3.26,1.64l-0.03,0.17l0.06,0.16c1.84,4.44,2.95,7.28,2.8,7.69
			c-0.24,0.36-2.38,1.39-7.09,3.65l-0.9,0.43c-4.97,2.3-9.45,4.41-13.69,6.4c-3.49,1.64-6.8,3.2-10.07,4.72
			c-12.2,5.65-14.99,6.5-15.51,6.52c-0.38-0.14-1.85-3.05-4.2-7.79c-0.04-0.1-0.21-0.41-0.66-0.41c-0.64,0-3.21,1.12-3.52,1.61
			l-0.19,0.32l0.15,0.3c3.71,7.57,5.68,11.83,10.02,21.15l2.29,4.94c3.94,8.52,6.79,14.67,10.5,22.9c0.15,0.32,0.42,0.92,1.09,0.92
			c0.18,0,0.37-0.05,0.57-0.14c6.53-2.81,13.44-5.78,19.77-8.61C871.27,356.96,871.62,356.67,871.45,355.89z"/>
		<path class="st0" d="M894.16,437.13c0.35,0,0.45,0.04,0.46,0.04c0.44,0.4,1.57,4.46,2.17,6.65l0.06,0.22l0.2,0.12
			c0.15,0.1,0.34,0.14,0.59,0.14c0.58,0,2.74-0.41,3.18-0.98l0.21-0.3l-0.08-0.29c-2.91-10.43-4.18-16.12-6.4-26.64
			c-0.06-0.3-0.3-0.65-1.1-0.65c-0.77,0-2.46,0.35-2.93,0.93c-0.16,0.19-0.21,0.42-0.17,0.65c0.42,1.93,1.72,7.8,1.49,8.48
			c-0.28,0.35-0.97,0.79-6.03,1.91c-4.45,0.99-6.5,1.34-7.81,1.34c-0.41,0-0.77-0.03-1.13-0.1c-3.23-0.85-7.32-4.57-8.67-10.72
			c-1.45-6.51-0.09-11.5,4.03-14.84c3.35-2.73,7.15-4.58,18.58-7.12c5.21-1.15,9.23-1.69,12.67-1.69c2.54,0,4.83,0.29,7.22,0.91
			c5.86,1.37,10.07,5.97,11.54,12.62c0.95,4.29,0.64,7.59-0.96,10.09c-1.77,2.79-6.01,6.37-11.89,10.03
			c-0.46,0.23-0.56,0.82-0.32,1.85c0.3,1.25,0.75,1.89,1.33,1.89l0.15-0.02c5.39-1.1,13.46-2.44,19.92-2.88l0.11-0.02
			c0.29-0.07,0.46-0.3,0.53-0.68c0-0.02,0.24-2.21-0.44-2.65l-0.1-0.06c-3.78-1.54-4.42-2.74-4.52-3.18
			c-0.06-0.3,0.12-1.14,0.31-2.02c0.58-2.68,1.55-7.17,0.21-13.22c-1.74-7.87-6.27-14.23-13.47-18.92
			c-5.92-3.77-11.92-5.61-18.33-5.61c-2.5,0-5.09,0.29-7.69,0.87c-8.52,1.88-15.1,6.32-19.58,13.2c-4.09,6.42-5.5,14.3-3.87,21.63
			c1.5,6.74,5.53,10.68,7.94,13.04c0.91,0.89,1.76,1.73,1.86,2.16c0.16,0.71-2.04,3.13-3.98,5.27l-0.11,0.16
			c-0.19,0.44,0.01,1.12,0.61,2.04c0.71,1.08,1.04,1.09,1.25,1.08l0.17-0.02c2.24-0.59,5.62-1.45,8.99-2.2
			C888.31,437.91,892.57,437.13,894.16,437.13z"/>
		<path class="st0" d="M935.64,497.36v-0.2c-0.01-4.9,0.04-22.14,0.22-26.64c0-0.28-0.01-0.94-2.63-0.94
			c-0.87,0-1.26,0.12-1.46,0.43l-0.09,0.14l-0.01,0.16c-0.19,4.92-0.37,7.84-0.67,8.15c-0.37,0.23-2.85,0.27-7.81,0.35l-1.16,0.02
			c-5,0.02-9.57,0.05-13.89,0.09c-4.3,0.04-8.35,0.07-12.33,0.08l-2,0c-12.01,0-14.47-0.38-14.83-0.57
			c-0.28-0.28-0.4-3.69-0.55-8.82l-0.01-0.29l-0.18-0.18c-0.14-0.14-0.37-0.38-2.31-0.38c-1.33,0-2.08,0.03-2.1,0.76
			c0.23,9.27,0.25,14.23,0.28,26.21c0.03,10.73,0.04,17.96-0.03,27.83c0,0.38,0.01,1.39,1.19,1.39c7.49,0.19,14.78,0.37,21.55,0.44
			h0.01h0.01c0.48-0.01,0.77-0.38,0.88-1.11c0-0.03,0.33-2.65-0.68-2.98c-11.48-2.34-15.61-4.54-17.04-5.95
			c-1-1.08-1.44-2.32-1.45-6.87l-0.03-10.26c-0.02-6.31,0.41-7.45,0.57-7.62c0.53-0.3,5.2-0.37,15.46-0.4l2.48,0
			c2.33,0,4.95,0.01,7.03,0.07c0.16,2.05,0.16,4.27,0.16,6.09c0.02,5.22-0.13,6.86-0.7,7.35c-0.66,0.67-2.51,1.26-9.93,2.35
			l-0.41,0.05l-0.17,0.3c-0.33,0.58-0.18,2.78,0.15,3.35c0.21,0.36,0.5,0.39,0.68,0.4c3.64-0.25,8.57-0.37,14.66-0.37
			c3.13,0,6.57,0.03,10.23,0.1c0.23,0,0.66-0.11,0.85-0.83c0.16-0.59,0.3-2.78-0.54-3.29l-0.12-0.08l-0.15-0.01
			c-6.09-0.45-7.61-0.9-8.27-1.56c-0.97-1.1-1.46-3.61-1.48-7.67l0-1.13c0-2.56,0-3.44,0.07-5.14l12.71-0.03c2.5,0,8.21,0,9.25,0.21
			c0.18,0.72,0.19,3,0.2,9.72c0.03,9.91-0.1,10.85-1.77,12.53c-1.37,1.37-4.92,3.45-14.04,5.56c-0.62,0.12-0.78,0.88-0.83,1.13
			c0,0.02-0.42,2.16,0.31,2.66l0.14,0.09l0.17,0.01c3.42,0.23,7.54,0.46,11.63,0.69c2.62,0.15,5.22,0.3,7.59,0.44
			c0.63,0.09,1.04-0.02,1.33-0.31c0.23-0.23,0.35-0.56,0.34-1.01C935.69,512.97,935.67,505.03,935.64,497.36z M875.28,524.34
			L875.28,524.34L875.28,524.34L875.28,524.34z"/>
		<path class="st0" d="M648.14,88.88c-0.36,0-0.63,0.11-0.77,0.27c-2.08,1.96-3.43,2.89-4.02,2.71c-0.2-0.06-0.73-0.55-1.25-1.03
			c-1.93-1.79-5.52-5.12-12.61-7.29c-2.67-0.82-5.42-1.24-8.16-1.24c-5.21,0-10.59,1.48-16.46,4.52
			c-7.54,4.09-13.13,10.98-15.73,19.42c-3.2,10.48,0.52,19.24,2.26,22.51c3.96,7.45,9.79,12.28,17.83,14.75
			c5.37,1.64,9.58,1.79,13.92,0.44l-0.02,0.08l1.07-0.42c0,0,0.42-0.16,1.05-0.16c0.69,0,1.36,0.19,2,0.56
			c1.02,0.58,1.16,1.05,1.93,4.47c0.06,1,1.91,1.31,2.57,1.31c0.91,0,1.17-0.44,1.25-0.72c1.52-6.51,3.04-11.29,4.72-16.42
			c0.06-0.15,0.1-0.41-0.08-0.72c-0.37-0.63-2.08-1.91-2.86-1.91c-0.28,0-0.52,0.13-0.65,0.33c-2.28,3.33-4.68,5.49-8.03,7.23
			c-3.05,1.63-5.5,2.32-8.21,2.32c-1.78,0-3.67-0.31-5.8-0.96c-7.04-2.18-11.39-6.46-12.25-12.06c-0.82-4.71-0.21-9.97,1.98-17.07
			c2.51-8.27,5.14-13.13,9.7-17.93c1.63-1.74,5.21-4.67,10.87-4.67c1.8,0,3.68,0.3,5.59,0.89c5.12,1.58,8.04,3.64,9.75,6.89
			c1.7,3.19,2.53,8.69,2.45,16.32c-0.01,0.14,0.03,0.36,0.24,0.57c0.47,0.49,1.93,0.91,2.56,0.91c0.64,0,0.82-0.38,0.87-0.55
			c1.46-5.16,4.51-15.11,6.97-21.42c0.05-0.16,0.1-0.47-0.15-0.82C650.25,89.41,648.92,88.88,648.14,88.88z"/>
	</g>
	<g>
		<path class="st0" d="M129.51,617.95c0.47-0.17,1.01,0.12,1.18,0.59l0.43,1.19l-11.36,25.53l0.02,0.05l16.84-6.1
			c0.47-0.17,1.04,0.05,1.23,0.58l2.06,5.69c0.17,0.47-0.1,1.06-0.58,1.23l-31.93,11.56c-0.47,0.17-1.01-0.12-1.18-0.59l-0.27-0.76
			c-0.05-0.14-0.05-0.57,0.01-0.7l12.05-25.56L118,630.6l-17.69,6.41c-0.47,0.17-1.04-0.05-1.23-0.58l-2.04-5.64
			c-0.17-0.47,0.1-1.06,0.57-1.23L129.51,617.95z"/>
		<path class="st0" d="M155.68,677.92c4.64,8.96,1.14,19.86-7.82,24.51c-8.96,4.64-19.8,1.16-24.44-7.8
			c-4.64-8.96-1.21-19.77,7.75-24.42C140.13,665.58,151.04,668.96,155.68,677.92z M130.59,690.92c2.55,4.93,8.67,6.87,13.56,4.34
			c4.93-2.55,6.92-8.7,4.36-13.62c-2.53-4.88-8.7-6.8-13.62-4.25C130,679.92,128.06,686.04,130.59,690.92z"/>
		<path class="st0" d="M171.79,709.2c0.42-0.29,1.02-0.21,1.33,0.25l8.53,12.44c3.42,4.99,2.18,11.84-2.77,15.23
			c-3.83,2.62-8.65,2.2-12.58-0.43l-6.66,12.94c-0.34,0.66-1.21,0.83-1.69,0.12l-3.79-5.53c-0.23-0.33-0.19-0.73-0.08-0.92
			l7.23-13.09l-1.97-2.87l-10.61,7.27c-0.42,0.29-1.05,0.17-1.33-0.25l-3.39-4.95c-0.31-0.46-0.17-1.05,0.25-1.33L171.79,709.2z
			 M168.84,729.87c1.17,1.71,3.75,2.08,5.5,0.88c1.75-1.2,2.16-3.62,1-5.33l-4.22-6.16l-6.49,4.45L168.84,729.87z"/>
		<path class="st0" d="M196.66,753.69l-4.69-5.48c-0.36-0.42-0.28-1.02,0.11-1.35l4.18-3.57c0.38-0.33,0.99-0.32,1.35,0.11
			l14.55,17.03c0.36,0.42,0.28,1.02-0.11,1.35l-4.18,3.57c-0.38,0.33-0.99,0.32-1.35-0.11l-4.69-5.48l-20.48,17.5
			c-0.38,0.33-1.02,0.28-1.35-0.11l-3.93-4.6c-0.33-0.38-0.28-1.02,0.11-1.35L196.66,753.69z"/>
		<path class="st0" d="M223.52,774c0.34-0.37,0.99-0.39,1.35-0.05l4.39,4.1c0.41,0.38,0.39,0.99,0.05,1.35l-8.68,9.29l10.54,9.85
			l8.68-9.29c0.34-0.37,0.95-0.42,1.35-0.05l4.39,4.1c0.37,0.34,0.39,0.99,0.05,1.35l-22.8,24.41c-0.34,0.37-0.99,0.39-1.35,0.05
			l-4.39-4.1c-0.41-0.38-0.39-0.99-0.05-1.36l9.06-9.7l-10.54-9.85l-9.06,9.7c-0.34,0.37-0.95,0.42-1.36,0.05l-4.39-4.1
			c-0.37-0.34-0.39-0.99-0.05-1.35L223.52,774z"/>
		<path class="st0" d="M261.48,807.42c0.3-0.41,0.89-0.53,1.34-0.2l16.81,12.39c0.45,0.33,0.5,0.93,0.2,1.34l-3.26,4.43
			c-0.3,0.41-0.89,0.53-1.34,0.2l-11.25-8.29l-4.31,5.85l9.26,6.83c0.41,0.3,0.5,0.93,0.2,1.34l-3.26,4.43
			c-0.3,0.41-0.93,0.5-1.34,0.2l-9.26-6.83l-7.27,9.87c-0.3,0.41-0.93,0.5-1.34,0.2l-4.79-3.53c-0.45-0.33-0.5-0.93-0.2-1.34
			L261.48,807.42z"/>
		<path class="st0" d="M294.65,830.43c0.26-0.43,0.89-0.58,1.32-0.32l5.17,3.15c0.43,0.26,0.58,0.89,0.32,1.32L284.1,863.1
			c-0.26,0.43-0.89,0.58-1.32,0.32l-5.17-3.15c-0.43-0.26-0.58-0.89-0.32-1.32L294.65,830.43z"/>
		<path class="st0" d="M319.43,844.76c0.22-0.45,0.78-0.68,1.28-0.44l18.75,9.2c0.5,0.24,0.66,0.83,0.44,1.28l-2.42,4.94
			c-0.22,0.45-0.78,0.68-1.28,0.44l-12.54-6.16l-2.76,5.62l10.33,5.07c0.45,0.22,0.66,0.83,0.44,1.28l-2.42,4.94
			c-0.24,0.5-0.83,0.66-1.28,0.44l-10.33-5.07l-3,6.11l12.54,6.16c0.5,0.25,0.66,0.83,0.44,1.28l-2.42,4.94
			c-0.22,0.45-0.79,0.68-1.28,0.44l-18.75-9.2c-0.5-0.24-0.66-0.83-0.44-1.28L319.43,844.76z"/>
		<path class="st0" d="M357.06,861.96c0.17-0.47,0.71-0.76,1.23-0.57l5.63,2.08c0.47,0.18,0.74,0.76,0.57,1.23l-9.35,25.27
			l11.26,4.17c0.52,0.19,0.74,0.76,0.57,1.23l-1.91,5.16c-0.17,0.47-0.71,0.76-1.23,0.57l-17.79-6.58
			c-0.52-0.19-0.74-0.76-0.57-1.23L357.06,861.96z"/>
		<path class="st0" d="M392.53,874.21c0.12-0.49,0.62-0.83,1.11-0.71l11.95,2.96c9.45,2.34,15.28,11.94,12.96,21.34
			c-2.35,9.5-11.99,15.27-21.44,12.93l-11.95-2.96c-0.49-0.12-0.77-0.66-0.65-1.15L392.53,874.21z M398.41,903.36
			c5.53,1.37,10.63-2,12.01-7.58c1.37-5.53-1.57-10.88-7.1-12.25l-4.7-1.16l-4.91,19.83L398.41,903.36z"/>
		<path class="st0" d="M436.61,909.52c2.44,0.37,5.59,2.79,4.73,8.43c-1.05,6.88-6.12,9.68-7.77,10.75c-0.45,0.29-1.07,0.3-1.4-0.21
			l-0.86-1.36c-0.33-0.51-0.25-1.06,0.31-1.38c0.67-0.41,4.95-2.66,5.68-7.09c0,0-1.18,0.38-2.68,0.15
			c-2.49-0.38-4.32-2.8-3.93-5.35C431.09,910.92,433.57,909.05,436.61,909.52z"/>
		<path class="st0" d="M491.6,888.49c0.04-0.45,0.49-0.82,0.89-0.82l0.81-0.01c0.25,0,0.71,0.19,0.87,0.49l12.06,21.6l0.1,0
			l11.35-21.98c0.15-0.31,0.6-0.51,0.85-0.52l0.81-0.01c0.4-0.01,0.86,0.34,0.92,0.79l6.25,33.81c0.11,0.65-0.33,1.12-0.94,1.13
			l-5.95,0.1c-0.45,0.01-0.91-0.39-0.97-0.79l-2.52-15.55l-0.1,0l-8.21,16.48c-0.15,0.3-0.6,0.56-0.85,0.57l-0.91,0.01
			c-0.3,0-0.71-0.24-0.87-0.54l-8.79-16.21l-0.1,0l-1.96,15.62c-0.04,0.41-0.44,0.82-0.95,0.82l-5.95,0.1
			c-0.61,0.01-1.07-0.44-0.98-1.09L491.6,888.49z"/>
		<path class="st0" d="M544.11,886.51c-0.06-0.5,0.33-1.01,0.83-1.07l6.01-0.74c0.5-0.06,1.01,0.33,1.07,0.83l4.08,33.14
			c0.06,0.5-0.33,1.01-0.83,1.07l-6.01,0.74c-0.5,0.06-1.01-0.33-1.07-0.83L544.11,886.51z"/>
		<path class="st0" d="M572.16,882.03c-0.11-0.49,0.24-0.99,0.73-1.1l1.23-0.28l23.94,14.4l0.05-0.01l-3.99-17.46
			c-0.11-0.49,0.18-1.02,0.72-1.15l5.9-1.35c0.49-0.11,1.04,0.23,1.15,0.72l7.57,33.1c0.11,0.49-0.24,0.99-0.73,1.1l-0.79,0.18
			c-0.15,0.03-0.57-0.02-0.7-0.1l-23.89-15.08l-0.05,0.01l4.19,18.34c0.11,0.49-0.18,1.02-0.72,1.15l-5.85,1.34
			c-0.49,0.11-1.04-0.23-1.15-0.72L572.16,882.03z"/>
		<path class="st0" d="M620.96,869.53c-0.18-0.47,0.11-1.01,0.58-1.18l1.18-0.44l25.61,11.15l0.05-0.02l-6.23-16.79
			c-0.18-0.47,0.04-1.04,0.56-1.23l5.67-2.11c0.47-0.18,1.06,0.09,1.23,0.56l11.82,31.82c0.18,0.47-0.11,1.01-0.58,1.19l-0.76,0.28
			c-0.14,0.05-0.57,0.05-0.7-0.01l-25.65-11.84l-0.05,0.02l6.55,17.64c0.18,0.47-0.04,1.04-0.57,1.23l-5.63,2.09
			c-0.47,0.17-1.06-0.09-1.23-0.57L620.96,869.53z"/>
		<path class="st0" d="M679.33,873.52c2.36-1.14,5.33-0.1,6.46,2.26c1.12,2.32,0.06,5.24-2.31,6.37c-2.32,1.12-5.21,0.1-6.33-2.22
			C676.02,877.57,677.01,874.63,679.33,873.52z"/>
		<path class="st0" d="M708.86,828.36c-0.28-0.42-0.2-1.02,0.26-1.33l17.3-11.69c0.46-0.31,1.05-0.16,1.33,0.26l3.08,4.56
			c0.28,0.42,0.2,1.02-0.26,1.33L719,829.3l3.5,5.18l9.53-6.44c0.42-0.28,1.05-0.16,1.33,0.26l3.08,4.56
			c0.31,0.46,0.16,1.05-0.26,1.33l-9.53,6.44l3.81,5.64l11.58-7.82c0.46-0.31,1.05-0.16,1.33,0.26l3.08,4.56
			c0.28,0.42,0.2,1.02-0.26,1.33l-17.3,11.69c-0.46,0.31-1.05,0.16-1.33-0.26L708.86,828.36z"/>
		<path class="st0" d="M759.94,828.24l-0.87-4.73c-0.11-0.76,0.69-1.3,1.12-1.33c0.22-0.05,4.72-0.34,7.27-2.48
			c1.55-1.3,1.86-3.2,0.72-4.56c-1.36-1.62-3.75-1.73-7.25-0.57c-4.43,1.47-10.77,2.38-14.66-2.25c-3.21-3.83-3.47-10.19,2.48-15.18
			c4.02-3.37,8.83-3.91,10.7-4.04c0.69-0.12,1.2,0.64,1.27,1.04l0.52,4.63c0.09,0.65-0.32,1.58-0.89,1.6
			c-0.51,0.1-5.11,0.34-7.47,2.32c-1.39,1.17-1.66,2.97-0.78,4.01c1.2,1.43,3.27,1.54,7.36,0.22c4.02-1.33,10.79-2.99,15.2,2.27
			c3.34,3.98,3.27,10.88-2.41,15.65c-5.02,4.21-9.56,4.46-11.19,4.32C760.33,829.09,760.09,829.04,759.94,828.24z"/>
		<path class="st0" d="M779.87,779.37l-5.04,5.16c-0.39,0.4-0.99,0.37-1.36,0.02l-3.93-3.85c-0.36-0.35-0.4-0.96-0.01-1.36
			l15.66-16.01c0.39-0.4,1-0.37,1.36-0.01l3.93,3.84c0.36,0.35,0.4,0.96,0.01,1.36l-5.04,5.16l19.25,18.84
			c0.36,0.35,0.37,0.99,0.01,1.36l-4.23,4.33c-0.35,0.36-0.99,0.37-1.36,0.01L779.87,779.37z"/>
		<path class="st0" d="M822.51,736.09l-2.84,3.92c-0.3,0.41-0.9,0.47-1.31,0.17l-2.57-1.86c-0.16-0.12-0.4-0.48-0.44-0.69
			l-0.34-9.34l2.72-3.76c0.3-0.41,0.9-0.47,1.31-0.17l26.23,18.99c0.41,0.3,0.54,0.89,0.24,1.3l-3.28,4.54
			c-0.33,0.45-0.93,0.51-1.34,0.21L822.51,736.09z"/>
		<path class="st0" d="M846.14,711.83l-0.13-0.08c-1.96,1.13-5.95,2.51-9.38,0.48c-4.86-2.88-5.37-9.05-2.23-14.34
			c3.27-5.51,8.92-8.02,13.78-5.14c3.3,1.96,3.95,6.1,4.03,8.43l0.17,0.1c2.24-1.31,6.7-3.18,10.43-0.97
			c4.73,2.8,5.82,9.08,1.96,15.59c-3.73,6.29-9.76,8.35-14.49,5.54C846.48,719.18,846.13,712.93,846.14,711.83z M844.49,699.58
			c-1.48-0.88-3.67-0.24-4.65,1.41c-0.95,1.61-0.46,3.83,1.02,4.71c1.56,0.93,3.41,0.67,5.4-0.9
			C846.73,702.32,845.96,700.46,844.49,699.58z M859.52,712.6c1.03-1.74,0.7-4.34-1.17-5.44c-1.61-0.95-3.93-0.69-6.1,1.19
			c-0.56,2.72,0.3,4.93,1.91,5.88C856.07,715.36,858.47,714.38,859.52,712.6z"/>
		<path class="st0" d="M854.56,657.71c0.09-0.79,0.64-1.15,1.39-1.08l4.14,0.3c0.63,0.07,1.07,0.44,0.93,1.48
			c-0.31,2.47-1.01,9.53,3.26,12.67c0.05-1.42,0.52-3.54,1.09-4.77c1.99-4.3,7.37-7.65,14.15-4.52c5.77,2.66,8.29,9.61,5.64,15.33
			c-3.28,7.1-10.41,8.58-17.55,5.28C854.13,676.18,853.97,662.21,854.56,657.71z M878.79,674.29c1.12-2.43,0.02-5.33-2.37-6.43
			c-2.43-1.12-5.35-0.08-6.47,2.34c-1.12,2.43-0.02,5.33,2.41,6.45C874.74,677.75,877.67,676.71,878.79,674.29z"/>
		<path class="st0" d="M868.55,621.45c0.01-0.8,0.52-1.21,1.27-1.22l4.15-0.12c0.64,0.01,1.11,0.33,1.07,1.38
			c-0.06,2.49-0.05,9.59,4.52,12.28c-0.1-1.42,0.16-3.57,0.61-4.86c1.54-4.48,6.56-8.36,13.62-5.93c6.01,2.07,9.21,8.72,7.16,14.69
			c-2.55,7.39-9.49,9.59-16.93,7.03C870,639.88,868.43,626,868.55,621.45z M894.34,635.51c0.87-2.53-0.52-5.3-3-6.16
			c-2.53-0.87-5.33,0.46-6.2,2.98c-0.87,2.53,0.52,5.3,3.05,6.17C890.66,639.37,893.47,638.04,894.34,635.51z"/>
	</g>
	<path class="st0" d="M500,9c66.29,0,130.59,12.98,191.12,38.58c58.47,24.73,110.98,60.13,156.07,105.23
		c45.09,45.1,80.5,97.61,105.23,156.07C978.02,369.42,991,433.72,991,500c0,66.29-12.98,130.59-38.58,191.12
		c-24.73,58.47-60.13,110.98-105.23,156.07c-45.1,45.09-97.61,80.5-156.07,105.23C630.59,978.02,566.29,991,500,991
		s-130.59-12.98-191.12-38.58c-58.47-24.73-110.98-60.13-156.07-105.23c-45.1-45.09-80.5-97.6-105.23-156.07
		C21.98,630.59,9,566.29,9,500c0-66.29,12.98-130.59,38.58-191.11c24.73-58.47,60.13-110.98,105.23-156.07
		c45.1-45.1,97.61-80.5,156.07-105.23C369.41,21.98,433.71,9,500,9 M500,0C223.86,0,0,223.87,0,500c0,276.14,223.86,500,500,500
		s500-223.85,500-500C1000,223.87,776.14,0,500,0L500,0z"/>
	<path class="st0" d="M500,163.5c45.43,0,89.49,8.9,130.97,26.44c40.07,16.95,76.06,41.21,106.96,72.12
		c30.91,30.91,55.17,66.89,72.12,106.96C827.6,410.5,836.5,454.57,836.5,500c0,45.43-8.9,89.5-26.44,130.98
		c-16.95,40.07-41.21,76.06-72.12,106.96c-30.91,30.91-66.9,55.17-106.96,72.12C589.49,827.6,545.43,836.5,500,836.5
		c-45.43,0-89.5-8.9-130.98-26.44c-40.07-16.95-76.06-41.21-106.96-72.12c-30.91-30.91-55.17-66.89-72.12-106.96
		C172.4,589.5,163.5,545.43,163.5,500c0-45.43,8.9-89.49,26.44-130.97c16.95-40.07,41.21-76.06,72.12-106.96
		c30.91-30.91,66.89-55.17,106.96-72.12C410.5,172.4,454.57,163.5,500,163.5 M500,154.5c-190.81,0-345.5,154.69-345.5,345.5
		c0,190.81,154.69,345.5,345.5,345.5c190.8,0,345.5-154.69,345.5-345.5C845.5,309.19,690.8,154.5,500,154.5L500,154.5z"/>
	<path class="st0" d="M500,36c256.26,0,464,207.75,464,464c0,256.26-207.74,464-464,464C243.74,964,36,756.26,36,500
		C36,243.75,243.74,36,500,36 M500,27c-63.85,0-125.8,12.51-184.12,37.18C259.56,88,208.98,122.1,165.54,165.54
		C122.1,208.98,88,259.56,64.17,315.89C39.51,374.21,27,436.15,27,500s12.51,125.8,37.17,184.12
		C88,740.45,122.1,791.03,165.54,834.46c43.44,43.44,94.02,77.54,150.35,101.36C374.21,960.5,436.15,973,500,973
		c63.85,0,125.8-12.51,184.12-37.17C740.44,912,791.03,877.9,834.46,834.46c43.44-43.44,77.54-94.02,101.36-150.34
		C960.5,625.8,973,563.86,973,500s-12.51-125.8-37.17-184.12C912,259.56,877.9,208.98,834.46,165.54
		C791.03,122.1,740.44,88,684.12,64.17C625.8,39.51,563.85,27,500,27L500,27z"/>
	<path class="st0" d="M502,182c-175.63,0-318,142.38-318,318s142.38,318,318,318c175.63,0,318-142.38,318-318S677.63,182,502,182z
		 M780.27,449.85c0.41,2.29-0.96,4.54-2.99,4.9l-128.2,21.01c-1.38,0-3.16-0.04-3.46-1.75l-0.1-0.56c-0.33-1.85,1.65-2.52,2.49-2.81
		l127.77-24.3C777.81,445.97,779.87,447.59,780.27,449.85z M765.37,499.67c0,2.33-1.49,4.3-3.26,4.3l-111.49-1.55
		c-1.17-0.24-2.67-0.58-2.67-2.33l0-0.57c0-1.88,1.76-2.2,2.52-2.34l111.62-1.77C763.87,495.42,765.37,497.38,765.37,499.67z
		 M749.4,409.12c0.8,2.19,0.07,4.55-1.59,5.16l-105.3,36.68c-1.18,0.17-2.7,0.36-3.3-1.27l-0.2-0.54c-0.64-1.76,0.91-2.67,1.57-3.06
		l104.29-39.84C746.53,405.64,748.61,406.96,749.4,409.12z M741.03,355.2c1.79-1.03,4.28-0.21,5.42,1.77
		c1.16,2.01,0.65,4.59-1.14,5.62l-113.28,63.59c-1.29,0.47-2.98,1.05-3.85-0.46l-0.29-0.5c-0.94-1.62,0.68-2.93,1.38-3.49
		L741.03,355.2z M703.41,329.49c1.5,1.78,1.62,4.25,0.27,5.39l-86.4,70.48c-1.05,0.56-2.42,1.27-3.54-0.07l-0.37-0.44
		c-1.21-1.44-0.06-2.82,0.43-3.41l84.37-73.1C699.53,327.2,701.94,327.73,703.41,329.49z M682.91,281.26
		c1.78,1.49,2.18,4.1,0.86,5.67l-84.7,98.5c-1.06,0.88-2.44,2-3.77,0.88l-0.44-0.37c-1.44-1.2-0.36-2.99,0.1-3.75l82.25-100.74
		C678.54,279.87,681.16,279.79,682.91,281.26z M632.96,270.39c2.02,1.16,2.98,3.44,2.1,4.97l-57.09,95.78
		c-0.79,0.89-1.84,2.02-3.35,1.15l-0.5-0.29c-1.62-0.94-1.02-2.63-0.76-3.35l54.28-97.55C628.54,269.56,630.98,269.24,632.96,270.39
		z M597.31,231.85c2.19,0.79,3.45,3.1,2.74,5.04l-45.9,121.53c-0.69,1.19-1.61,2.71-3.25,2.12l-0.54-0.2
		c-1.76-0.64-1.36-2.69-1.19-3.56l42.84-122.8C592.72,232.04,595.16,231.07,597.31,231.85z M496.9,595.86
		c-28.62,0-49.46-11.2-65.35-27.07c-13.98-14-26.74-36.41-26.74-63.77c0-25.84,9.65-51.66,28.62-70.96
		c17.43-17.12,39.52-31.74,69.08-31.74c30.8,0,44.81,12.13,48.84,12.13c2.49,0,5.62-2.8,11.22-12.74c0.62-1.57,8.39-0.94,8.39,0.93
		c-1.54,21.15-1.54,54.12-1.23,70.31c0,1.24-7.78,1.24-8.11,0c-6.21-21.16-13.68-38.27-22.69-47.29
		c-7.8-7.77-18.07-12.14-36.73-12.14c-25.51,0-40.46,13.38-47.3,27.38c-9.34,18.66-12.78,36.1-12.78,63.16
		c0,23.66,3.13,40.15,9.98,53.52c7.47,15.57,24.26,25.83,49.18,25.83c19.58,0,30.72-6.24,41.92-17.42
		c8.72-8.68,13.96-17.7,17.73-29.64c0.47-1.48,9.45,1.61,9.14,2.84c-0.33,16.19-0.52,32.42,1.03,53.55c0,1.89-7.79,2.51-8.4,0.94
		c-5.6-9.94-6.71-11.68-11.2-12.74c-6.65-1.59-11.09,1.96-11.09,1.96l0.04-0.08C529.5,591.12,516.85,595.86,496.9,595.86z
		 M541.8,241.43c0.31-1.74,2.5-2.88,4.75-2.49c2.29,0.4,3.98,2.22,3.67,3.96l-20.89,109.53c-0.44,1.11-1.04,2.52-2.75,2.22
		l-0.57-0.1c-1.85-0.33-1.86-2.12-1.86-2.89L541.8,241.43z M499.97,214.7c2.33,0,4.3,1.74,4.3,3.8l-1.66,129.9
		c-0.24,1.36-0.59,3.1-2.33,3.1h-0.57c-1.87,0-2.2-2.06-2.33-2.94l-1.66-130.05C495.72,216.44,497.68,214.7,499.97,214.7z
		 M454.6,238.96c2.29-0.41,4.5,0.72,4.8,2.46l17.84,110.07c-0.04,1.19-0.11,2.73-1.83,3.03l-0.56,0.1
		c-1.85,0.33-2.47-1.36-2.74-2.08l-21.12-109.62C450.68,241.17,452.35,239.36,454.6,238.96z M402.64,231.87
		c2.19-0.8,4.64,0.17,5.34,2.1l42.87,122.63c0.23,1.36,0.51,3.11-1.13,3.71l-0.54,0.2c-1.76,0.64-2.77-1.18-3.2-1.97L399.95,236.9
		C399.24,234.96,400.49,232.65,402.64,231.87z M368.2,270.42c2.02-1.17,4.47-0.86,5.36,0.67l54.4,97.33
		c0.37,1.13,0.83,2.6-0.68,3.47l-0.5,0.29c-1.62,0.94-2.79-0.43-3.29-1.02l-57.34-95.78C365.27,273.84,366.21,271.56,368.2,270.42z
		 M317.04,281.3c1.78-1.5,4.41-1.43,5.74,0.15l82.23,100.58c0.68,1.19,1.54,2.75,0.21,3.87l-0.44,0.37
		c-1.44,1.2-3.01-0.17-3.68-0.76l-84.86-98.56C314.91,285.36,315.29,282.77,317.04,281.3z M297.76,329.53
		c1.5-1.79,3.91-2.34,5.26-1.2l84.41,72.85c0.74,0.94,1.67,2.16,0.55,3.5l-0.37,0.44c-1.2,1.44-2.77,0.55-3.44,0.17l-86.64-70.4
		C296.18,333.75,296.29,331.29,297.76,329.53z M253.52,357.02c1.16-2.02,3.66-2.85,5.44-1.82l111.67,66.39
		c1.05,0.89,2.39,2.06,1.52,3.57l-0.29,0.5c-0.94,1.62-2.88,0.87-3.72,0.55L254.69,362.6C252.9,361.57,252.37,359,253.52,357.02z
		 M251.79,409.17c0.8-2.19,2.87-3.53,4.53-2.93l104.24,39.59c1.01,0.63,2.3,1.46,1.71,3.1l-0.2,0.54c-0.64,1.76-2.41,1.46-3.17,1.33
		l-105.49-36.52C251.75,413.67,251.01,411.32,251.79,409.17z M219.72,449.9c0.4-2.29,2.46-3.93,4.49-3.57l127.64,24.19
		c1.29,0.48,2.95,1.12,2.65,2.83l-0.1,0.56c-0.33,1.85-2.41,1.81-3.3,1.79l-128.36-20.95C220.7,454.39,219.32,452.16,219.72,449.9z
		 M353.26,499.38l0,0.57c0,1.87-1.77,2.2-2.53,2.33l-111.62,1.69c-1.77,0-3.27-1.96-3.27-4.25c0-2.33,1.5-4.3,3.26-4.3l111.49,1.63
		C351.76,497.29,353.26,497.63,353.26,499.38z M219.73,548.74c-0.4-2.29,0.97-4.54,3-4.89l128.21-20.92c1.38,0,3.16,0.04,3.46,1.75
		l0.1,0.57c0.33,1.85-1.65,2.52-2.49,2.81l-127.78,24.21C222.18,552.62,220.13,551,219.73,548.74z M253.4,585.12l105.33-36.6
		c1.18-0.17,2.71-0.36,3.3,1.27l0.2,0.54c0.64,1.76-0.91,2.67-1.58,3.06l-104.31,39.77c-1.67,0.61-3.74-0.72-4.53-2.87
		C251.02,588.09,251.75,585.73,253.4,585.12z M258.96,643.39c-1.79,1.03-4.28,0.21-5.42-1.78c-1.16-2.02-0.64-4.59,1.14-5.62
		l113.33-63.51c1.3-0.47,2.98-1.04,3.85,0.47l0.29,0.5c0.94,1.62-0.69,2.93-1.38,3.49L258.96,643.39z M297.8,669.91
		c-1.5-1.79-1.62-4.26-0.27-5.39l86.46-70.42c1.05-0.56,2.42-1.26,3.54,0.07l0.37,0.44c1.21,1.44,0.06,2.82-0.44,3.41l-84.42,73.04
		C301.68,672.2,299.27,671.66,297.8,669.91z M317.08,717.33c-1.78-1.5-2.17-4.1-0.85-5.67L401,613.21c1.06-0.88,2.44-2,3.78-0.88
		l0.44,0.37c1.44,1.2,0.36,2.99-0.11,3.75l-82.32,100.69C321.46,718.72,318.83,718.8,317.08,717.33z M368.24,729.01
		c-2.02-1.16-2.98-3.45-2.1-4.97l57.16-95.74c0.79-0.89,1.84-2.02,3.35-1.15l0.5,0.29c1.62,0.94,1.02,2.63,0.76,3.35l-54.35,97.51
		C372.67,729.83,370.23,730.15,368.24,729.01z M407.98,764.61c-0.71,1.94-3.15,2.91-5.3,2.13c-2.19-0.8-3.44-3.11-2.74-5.04
		l45.99-121.5c0.69-1.19,1.61-2.71,3.25-2.12l0.54,0.2c1.76,0.64,1.36,2.69,1.18,3.56L407.98,764.61z M459.41,757.96
		c-0.31,1.75-2.5,2.88-4.75,2.48c-2.29-0.4-3.98-2.22-3.67-3.96l20.96-109.52c0.44-1.11,1.04-2.52,2.76-2.22l0.56,0.1
		c1.85,0.33,1.86,2.12,1.86,2.89L459.41,757.96z M500.03,783.89c-2.33,0-4.3-1.74-4.3-3.8l1.57-129.9c0.24-1.36,0.58-3.1,2.33-3.1
		l0.57,0c1.87,0,2.2,2.06,2.33,2.94l1.75,130.05C504.28,782.15,502.32,783.89,500.03,783.89z M546.61,760.44
		c-2.29,0.4-4.5-0.73-4.8-2.46l-17.76-110.08c0.04-1.19,0.11-2.73,1.83-3.03l0.56-0.1c1.85-0.33,2.47,1.36,2.74,2.08l21.05,109.63
		C550.53,758.22,548.86,760.04,546.61,760.44z M597.36,766.72c-2.19,0.8-4.64-0.16-5.34-2.1l-42.95-122.6
		c-0.24-1.36-0.51-3.11,1.12-3.71l0.54-0.2c1.76-0.64,2.77,1.18,3.2,1.97l46.12,121.61C600.76,763.63,599.51,765.94,597.36,766.72z
		 M633.01,728.98c-2.02,1.16-4.47,0.85-5.35-0.67l-54.34-97.37c-0.37-1.13-0.83-2.6,0.68-3.47l0.5-0.29
		c1.62-0.94,2.79,0.43,3.28,1.02l57.28,95.82C635.94,725.56,634.99,727.83,633.01,728.98z M682.96,717.29
		c-1.78,1.5-4.41,1.43-5.74-0.14l-82.3-100.52c-0.69-1.19-1.55-2.75-0.21-3.87l0.44-0.37c1.43-1.21,3.01,0.16,3.68,0.75l84.93,98.5
		C685.09,713.23,684.71,715.82,682.96,717.29z M703.45,669.87c-1.5,1.78-3.91,2.33-5.26,1.2l-84.37-72.91
		c-0.74-0.93-1.66-2.16-0.55-3.5l0.37-0.44c1.2-1.44,2.77-0.55,3.43-0.16l86.6,70.46C705.03,665.65,704.92,668.11,703.45,669.87z
		 M746.48,641.57c-1.16,2.02-3.66,2.86-5.44,1.83l-111.71-66.31c-1.05-0.89-2.39-2.06-1.52-3.56l0.29-0.5
		c0.94-1.62,2.88-0.88,3.71-0.55l113.5,63.51C747.1,637.02,747.63,639.59,746.48,641.57z M749.42,590.23
		c-0.8,2.19-2.88,3.53-4.53,2.93l-104.22-39.66c-1.01-0.63-2.3-1.46-1.71-3.1l0.2-0.54c0.64-1.76,2.41-1.46,3.17-1.33l105.47,36.59
		C749.46,585.72,750.2,588.07,749.42,590.23z M775.79,552.27l-127.65-24.1c-1.29-0.47-2.95-1.11-2.65-2.83l0.1-0.57
		c0.32-1.85,2.41-1.81,3.3-1.79l128.37,20.86c2.04,0.36,3.41,2.59,3.01,4.84C779.88,550.98,777.82,552.62,775.79,552.27z"/>
</g>
</svg>
