<?xml version="1.0" encoding="UTF-8" standalone="no"?>
<!-- Created with Inkscape (http://www.inkscape.org/) -->

<svg
   version="1.1"
   id="svg11"
   xml:space="preserve"
   width="615.99994"
   height="616.00018"
   viewBox="0 0 615.99996 616.00018"
   sodipodi:docname="stolaf_logo.svg"
   inkscape:version="1.1.2 (b8e25be8, 2022-02-05)"
   xmlns:inkscape="http://www.inkscape.org/namespaces/inkscape"
   xmlns:sodipodi="http://sodipodi.sourceforge.net/DTD/sodipodi-0.dtd"
   xmlns="http://www.w3.org/2000/svg"
   xmlns:svg="http://www.w3.org/2000/svg"><defs
     id="defs15"><clipPath
       clipPathUnits="userSpaceOnUse"
       id="clipPath27"><path
         d="M 0,768 H 1366 V 0 H 0 Z"
         id="path25" /></clipPath></defs><sodipodi:namedview
     id="namedview13"
     pagecolor="#ffffff"
     bordercolor="#666666"
     borderopacity="1.0"
     inkscape:pageshadow="2"
     inkscape:pageopacity="0.0"
     inkscape:pagecheckerboard="0"
     showgrid="false"
     inkscape:zoom="0.65536059"
     inkscape:cx="70.953305"
     inkscape:cy="355.52946"
     inkscape:window-width="1792"
     inkscape:window-height="964"
     inkscape:window-x="0"
     inkscape:window-y="25"
     inkscape:window-maximized="0"
     inkscape:current-layer="g17" /><g
     id="g17"
     inkscape:groupmode="layer"
     inkscape:label="stolaf_seal"
     transform="matrix(1.3333333,0,0,-1.3333333,-537.05389,870.35441)"><g
       id="g21"
       transform="translate(-49.209552,37.76547)"
       style="fill:#cc8a00;fill-opacity:1"><g
         id="g23"
         clip-path="url(#clipPath27)"
         style="fill:#cc8a00;fill-opacity:1"><g
           id="g29"
           transform="translate(596.8711,300.9453)"
           style="fill:#cc8a00;fill-opacity:1"><path
             d="m 0,0 v 0 c -14.876,21.907 -27.779,47.861 -34.642,77.528 -3.346,14.466 -5.26,29.812 -5.26,46.002 v 53.667 C -59.541,150.947 -71.173,118.359 -71.173,83.055 -71.173,1.307 -8.809,-65.856 70.935,-73.503 53.888,-60.801 24.32,-35.818 0,0"
             style="fill:#cc8a00;fill-opacity:1;fill-rule:nonzero;stroke:none"
             id="path31" /></g><g
           id="g33"
           transform="translate(682.4922,508.6807)"
           style="fill:#cc8a00;fill-opacity:1"><path
             d="M 0,0 C 53.521,0 93.7,-9.073 112.629,-14.387 84.094,14.618 44.41,32.621 0.508,32.621 -43.076,32.621 -82.513,14.89 -111.001,-13.745 -90.995,-8.382 -51.502,0 0,0"
             style="fill:#cc8a00;fill-opacity:1;fill-rule:nonzero;stroke:none"
             id="path35" /></g><g
           id="g37"
           transform="translate(807.1123,480.584)"
           style="fill:#cc8a00;fill-opacity:1"><path
             d="m 0,0 c 0.002,-9.189 -0.003,-25.225 -0.003,-50.164 v -5.944 c 0,-4.716 -0.772,-13.861 -0.474,-13.913 -6.446,-97.726 -79.354,-160.604 -110.691,-183.291 80.814,6.589 144.357,74.215 144.357,156.728 C 33.189,-60.164 20.778,-26.662 0,0"
             style="fill:#cc8a00;fill-opacity:1;fill-rule:nonzero;stroke:none"
             id="path39" /></g><g
           id="g41"
           transform="translate(804.3643,421.1797)"
           style="fill:#cc8a00;fill-opacity:1"><path
             d="m 0,0 c -0.099,-2.509 -0.258,-5.015 -0.379,-7.522 -0.048,-0.984 -0.224,-2.232 -0.032,-3.324 -1.545,-22.636 -6.899,-44.894 -15.546,-65.862 -7.673,-18.604 -17.989,-36.113 -30.001,-52.236 -10.32,-13.853 -22.011,-26.693 -34.614,-38.496 -5.164,-4.837 -10.491,-9.501 -15.969,-13.979 -4.62,-3.776 -8.265,-6.595 -13.111,-10.107 -3.151,-2.284 -6.347,-4.503 -9.604,-6.63 -1.086,-0.709 -2.275,-1.344 -3.384,-2.057 -5.787,3.63 -11.398,7.793 -16.683,11.894 -14.674,11.384 -28.374,24.065 -40.866,37.808 -9.05,9.956 -17.432,20.498 -25.003,31.622 h -0.001 c -10.56,15.584 -19.555,32.275 -26.192,49.908 -7.229,19.205 -11.634,38.814 -12.937,59.361 -0.528,8.327 -0.408,16.677 -0.408,25.016 v 32.223 14.003 c 0,1.929 0.119,3.919 0.071,5.871 6.182,2.119 12.555,3.779 18.886,5.337 18.656,4.592 37.678,7.714 56.788,9.645 27.008,2.729 54.269,3.099 81.342,1.113 20.773,-1.524 41.465,-4.436 61.786,-9.034 8.768,-1.984 17.38,-4.387 25.935,-7.112 V 67.319 C 0.082,65.222 0.082,63.124 0.083,61.025 0.085,52.103 0.083,43.179 0.082,34.256 0.081,25.918 0.08,17.579 0.08,9.24 0.08,6.16 0.122,3.078 0,0 M 4.786,-9.83 C 4.798,-9.851 4.81,-9.87 4.821,-9.891 4.826,-9.905 4.828,-9.959 4.829,-10.021 4.814,-9.958 4.805,-9.893 4.786,-9.83 M 0.067,68.996 c -0.139,0.528 -0.026,0.366 0,0 m 5.341,-2.004 c -0.002,0.944 0.174,2.165 -0.107,3.094 -0.254,0.836 -0.779,1.363 -1.403,1.637 -0.142,0.083 -0.291,0.162 -0.459,0.224 -7.381,2.742 -15.118,4.698 -22.758,6.548 -19.376,4.691 -39.15,7.778 -58.992,9.642 -27.16,2.551 -54.557,2.698 -81.746,0.482 -20.736,-1.689 -41.41,-4.704 -61.694,-9.357 -8.722,-2 -17.593,-4.116 -26.015,-7.195 -0.112,-0.041 -0.225,-0.079 -0.338,-0.12 -1.115,-0.405 -1.957,-1.33 -1.957,-2.569 V 51.265 18.517 c 0,-7.184 -0.124,-14.386 0.099,-21.568 0.65,-20.931 4.412,-41.18 11.096,-60.813 6.23,-18.299 14.863,-35.748 25.301,-52.006 1.232,-1.919 2.491,-3.82 3.77,-5.709 l 10e-4,-0.001 c 12.922,-18.986 28.128,-36.381 44.948,-52.004 10.828,-10.059 22.325,-19.478 34.489,-27.882 2.105,-1.455 4.225,-2.904 6.413,-4.234 0.811,-0.493 1.878,-0.475 2.69,0 4.104,2.393 8.034,5.12 11.907,7.863 10.176,7.207 19.893,15.078 29.117,23.465 12.761,11.602 24.589,24.25 35.169,37.875 12.533,16.139 23.354,33.601 31.646,52.296 9.356,21.095 15.449,43.472 17.758,66.446 0.142,1.421 0.27,2.844 0.384,4.268 0.082,1.024 0.333,2.258 0.131,3.329 0.004,0.026 0.006,0.044 0.01,0.08 0.034,0.324 0.006,0.67 0.016,0.996 0.029,0.956 0.083,1.911 0.134,2.866 0.128,2.419 0.273,4.838 0.35,7.259 0.086,2.73 0.042,5.466 0.042,8.197 0,19.251 0.031,38.501 -0.002,57.752"
             style="fill:#cc8a00;fill-opacity:1;fill-rule:nonzero;stroke:none"
             id="path43" /></g><g
           id="g45"
           transform="translate(484.0391,314.9053)"
           style="fill:#cc8a00;fill-opacity:1"><path
             d="M 0,0 C -0.896,2.363 -1.73,4.412 -2.121,5.15 -1.038,5.562 2.656,6.959 4.94,7.912 5.391,7.915 5.74,7.286 5.587,6.806 2.87,5.353 1.665,4.221 1.705,2.633 1.74,1.505 2.039,0.561 2.488,-0.619 l 0.714,-1.885 c 0.587,-1.55 0.685,-1.515 3.443,-0.47 l 8.813,3.342 c 1.233,0.467 1.318,0.54 0.996,1.389 L 15.625,3.936 C 14.41,7.15 14.102,7.667 11.894,7.252 L 10.107,6.912 C 9.678,7.005 9.411,7.707 9.734,8.038 c 1.296,0.45 3.147,1.065 4.969,1.758 1.822,0.69 3.566,1.434 5.078,2.051 0.465,-0.035 0.73,-0.737 0.47,-1.091 L 18.443,9.733 C 16.5,8.617 16.626,7.987 17.842,4.775 L 18.67,2.597 c 0.32,-0.849 0.435,-0.849 1.666,-0.381 l 6.893,2.61 c 5.219,1.979 5.143,2.331 4.78,4.178 l -0.343,1.643 c 0.247,0.392 1.148,0.69 1.457,0.468 0.799,-2.401 1.38,-4.082 1.993,-5.707 0.617,-1.624 1.295,-3.266 2.038,-4.928 -0.085,-0.371 -0.956,-0.743 -1.4,-0.615 L 35.301,0.62 C 34.346,2.246 34.072,2.522 28.854,0.543 L 10.535,-6.399 C 5.316,-8.375 5.292,-8.766 5.605,-10.633 l 0.085,-0.516 c -0.247,-0.39 -1.148,-0.687 -1.457,-0.466 -0.393,1.328 -0.971,3.009 -1.587,4.634 z"
             style="fill:#cc8a00;fill-opacity:1;fill-rule:nonzero;stroke:none"
             id="path47" /></g><g
           id="g49"
           transform="translate(493.6396,337.832)"
           style="fill:#cc8a00;fill-opacity:1"><path
             d="m 0,0 c 1.649,0.343 1.753,0.365 1.367,2.222 -0.79,3.789 -3.626,5.012 -8.522,3.995 -4.074,-0.847 -7.223,-3.56 -6.523,-6.925 0.419,-2.009 0.583,-2.016 2.954,-1.521 z m -6.49,-6.028 c -4.95,-1.033 -5.563,-1.199 -5.442,-3.071 l 0.055,-1.035 c -0.306,-0.347 -1.129,-0.518 -1.452,-0.263 -0.816,2.371 -1.654,5.627 -2.312,8.796 -0.63,3.017 -0.66,5.753 0.224,7.711 0.98,2.261 3.106,4.2 6.817,4.969 4.745,0.987 7.686,-1.263 9.112,-2.942 0.204,-0.203 0.598,-0.038 0.877,0.182 6.317,4.538 10.298,7.383 11.93,9.62 1.01,1.338 1.089,2.526 1.043,2.999 0.167,0.239 0.732,0.354 1.016,0.291 0.251,-0.43 0.559,-1.132 0.84,-2.486 0.773,-3.712 -0.82,-6.142 -5.125,-9.499 C 9.145,7.75 6.534,6.08 4.717,4.731 3.316,3.716 3.197,3.247 3.461,1.971 3.703,0.811 3.765,0.781 4.847,1.006 l 6.599,1.375 c 5.465,1.136 5.548,1.515 5.477,3.398 l -0.021,0.883 c 0.306,0.348 1.241,0.501 1.511,0.234 0.251,-1.722 0.562,-3.474 0.915,-5.174 0.355,-1.703 0.767,-3.432 1.241,-5.191 -0.141,-0.35 -1.045,-0.66 -1.48,-0.386 l -0.33,0.817 c -0.689,1.754 -0.914,2.069 -6.382,0.934 z"
             style="fill:#cc8a00;fill-opacity:1;fill-rule:nonzero;stroke:none"
             id="path51" /></g><g
           id="g53"
           transform="translate(492.9531,369.4287)"
           style="fill:#cc8a00;fill-opacity:1"><path
             d="m 0,0 c -0.054,1.104 -0.165,1.258 -1.412,0.882 l -6.234,-1.96 c -2.753,-0.844 -3.744,-1.09 -4.102,-1.306 l 0.005,-0.08 c 0.375,-0.139 1.707,-0.432 4.21,-0.983 l 6.236,-1.363 c 1.543,-0.318 1.541,-0.241 1.493,0.707 z m 2.595,-4.62 c 0.05,-1.026 0.047,-0.985 1.484,-1.272 l 6.39,-1.315 c 3.14,-0.64 3.24,-0.475 3.487,0.998 l 0.205,1.157 c 0.358,0.293 1.304,0.3 1.53,-0.006 -0.043,-1.268 0.019,-2.568 0.042,-4.189 0.063,-1.303 0.176,-2.522 0.348,-3.899 -0.252,-0.289 -1.039,-0.365 -1.524,-0.112 l -0.32,1.171 c -0.319,1.131 -0.76,1.545 -2.526,2.055 -1.388,0.406 -3.628,0.932 -6.51,1.623 l -18.985,4.502 c -1.705,0.394 -2.987,0.726 -3.875,0.565 -0.436,1.363 -2.655,2.561 -2.659,2.642 -0.015,0.313 0.135,0.518 0.39,0.689 2.336,0.744 4.784,1.378 7.119,2.125 l 21.767,6.74 c 3.482,1.079 3.788,1.29 4.218,3.326 l 0.128,0.599 c 0.354,0.334 1.247,0.377 1.523,0.114 C 14.802,11.27 14.819,9.81 14.918,7.755 14.999,6.061 15.188,4.33 15.307,2.952 15.058,2.622 14.115,2.537 13.784,2.759 L 13.586,3.62 c -0.33,1.407 -0.655,1.589 -2.837,0.891 L 3.684,2.314 C 2.283,1.888 2.289,1.732 2.343,0.626 Z"
             style="fill:#cc8a00;fill-opacity:1;fill-rule:nonzero;stroke:none"
             id="path55" /></g><g
           id="g57"
           transform="translate(508.4756,415.4961)"
           style="fill:#cc8a00;fill-opacity:1"><path
             d="M 0,0 C 0.244,0.373 1.344,0.234 1.514,-0.22 1.254,-1.9 1.059,-3.43 0.916,-5.004 0.745,-6.851 0.644,-8.547 0.59,-10.287 c -0.239,-0.296 -1.25,-0.361 -1.529,0.06 l -0.166,1.088 c -0.22,1.604 -0.577,1.757 -4.144,2.083 l -21.449,1.973 -0.005,-0.081 c 2.787,-1.324 4.306,-2.022 6.338,-2.96 l 8.919,-4.23 c 3.546,-1.676 9.189,-4.178 11.588,-5.112 0.195,-0.175 0.141,-0.766 -0.094,-1.022 -2.894,-0.407 -8.189,-1.626 -10.893,-2.291 l -10.388,-2.575 c -2.273,-0.546 -5.674,-1.304 -7.292,-1.632 l -0.005,-0.078 c 2.56,-0.314 6.643,-0.769 8.839,-1.049 3.192,-0.374 7.851,-0.882 12.153,-1.277 3.461,-0.317 4.252,-0.35 4.825,1.302 l 0.435,1.27 c 0.341,0.247 1.335,0.154 1.517,-0.179 -0.236,-1.445 -0.403,-2.662 -0.537,-4.115 -0.114,-1.258 -0.191,-2.679 -0.228,-4.224 -0.296,-0.329 -1.291,-0.239 -1.534,0.023 l -0.041,0.678 c -0.141,1.916 -0.904,2.262 -4.077,2.834 -3.279,0.577 -6.676,1.008 -12.113,1.707 -3.551,0.485 -7.884,1.122 -11.082,1.415 -2.463,0.228 -3.566,-0.267 -4.074,-1.768 l -0.439,-1.31 c -0.386,-0.2 -1.38,-0.069 -1.506,0.3 0.215,1.169 0.363,2.225 0.496,3.681 0.126,1.376 0.253,2.755 0.232,4.223 3.158,-0.134 5.975,0.6 8.904,1.363 l 12.508,3.214 c 0.921,0.232 3.637,1.014 4.891,1.415 -1.462,0.768 -2.885,1.414 -5.267,2.546 l -9.729,4.624 c -3.345,1.576 -6.324,3.119 -9.723,4.105 0.203,1.052 0.374,2.346 0.451,3.21 0.151,1.652 0.228,3.032 0.224,4.143 0.248,0.414 1.254,0.402 1.534,-0.02 l 0.139,-1.323 c 0.21,-1.765 1.012,-2.233 3.793,-2.489 7.761,-0.713 15.529,-1.347 23.316,-1.787 3.522,-0.203 3.876,0.202 4.257,1.436 z"
             style="fill:#cc8a00;fill-opacity:1;fill-rule:nonzero;stroke:none"
             id="path59" /></g><g
           id="g61"
           transform="translate(483.2881,448.0166)"
           style="fill:#cc8a00;fill-opacity:1"><path
             d="M 0,0 C 0.751,2.415 1.355,4.541 1.501,5.363 2.605,5.023 6.377,3.852 8.767,3.193 9.123,2.916 9.012,2.207 8.593,1.925 5.558,2.45 3.912,2.3 2.966,1.022 2.297,0.114 1.953,-0.812 1.579,-2.021 L 0.982,-3.943 C 0.491,-5.528 0.59,-5.559 3.405,-6.433 l 9.006,-2.795 c 1.256,-0.39 1.367,-0.383 1.638,0.483 l 0.691,2.226 c 1.019,3.283 1.094,3.88 -0.902,4.911 l -1.615,0.833 c -0.282,0.336 -0.061,1.054 0.4,1.115 1.297,-0.441 3.134,-1.096 4.993,-1.673 1.863,-0.578 3.696,-1.065 5.268,-1.509 0.344,-0.315 0.12,-1.03 -0.302,-1.148 l -2.055,0.304 c -2.219,0.32 -2.505,-0.255 -3.523,-3.534 l -0.692,-2.226 c -0.27,-0.867 -0.181,-0.937 1.077,-1.327 l 7.042,-2.185 c 5.332,-1.655 5.485,-1.33 6.338,0.347 l 0.744,1.508 c 0.431,0.153 1.325,-0.166 1.435,-0.528 -0.849,-2.385 -1.427,-4.064 -1.944,-5.723 -0.514,-1.66 -0.989,-3.375 -1.428,-5.139 -0.298,-0.242 -1.214,0.002 -1.482,0.377 l 0.105,0.876 c 0.249,1.867 0.205,2.253 -5.128,3.906 l -18.708,5.807 c -5.333,1.656 -5.588,1.363 -6.49,-0.3 l -0.252,-0.46 c -0.434,-0.152 -1.328,0.165 -1.435,0.527 0.509,1.29 1.085,2.973 1.6,4.633 z"
             style="fill:#cc8a00;fill-opacity:1;fill-rule:nonzero;stroke:none"
             id="path63" /></g><g
           id="g65"
           transform="translate(504.0947,459.9385)"
           style="fill:#cc8a00;fill-opacity:1"><path
             d="m 0,0 c 1.524,-0.719 1.62,-0.765 2.427,0.95 1.65,3.501 0.126,6.189 -4.402,8.321 -3.762,1.775 -7.907,1.501 -9.372,-1.606 -0.875,-1.856 -0.75,-1.962 1.442,-2.993 z m -8.813,-0.91 c -4.573,2.158 -5.162,2.391 -6.192,0.824 l -0.581,-0.863 c -0.449,-0.093 -1.211,0.268 -1.314,0.665 0.775,2.387 2.063,5.491 3.446,8.42 1.312,2.785 2.937,4.991 4.82,6.021 2.144,1.218 5.006,1.485 8.436,-0.134 C 4.185,11.957 5.179,8.39 5.305,6.188 5.348,5.907 5.762,5.8 6.116,5.808 13.894,5.632 18.784,5.51 21.432,6.312 c 1.615,0.462 2.388,1.365 2.64,1.772 0.275,0.087 0.797,-0.16 0.986,-0.379 C 24.997,7.21 24.822,6.462 24.229,5.211 22.615,1.781 19.88,0.801 14.423,0.711 11.97,0.69 8.879,0.925 6.615,0.943 4.884,0.975 4.508,0.669 3.951,-0.508 3.446,-1.58 3.477,-1.641 4.479,-2.109 l 6.093,-2.877 c 5.05,-2.38 5.345,-2.125 6.421,-0.581 l 0.513,0.718 c 0.452,0.093 1.294,-0.347 1.35,-0.721 -0.836,-1.529 -1.645,-3.113 -2.383,-4.684 -0.743,-1.573 -1.452,-3.203 -2.134,-4.89 -0.324,-0.198 -1.234,0.101 -1.416,0.578 l 0.229,0.854 c 0.506,1.816 0.514,2.203 -4.533,4.583 z"
             style="fill:#cc8a00;fill-opacity:1;fill-rule:nonzero;stroke:none"
             id="path67" /></g><g
           id="g69"
           transform="translate(521.707,484.3057)"
           style="fill:#cc8a00;fill-opacity:1"><path
             d="M 0,0 C 0.573,0.943 0.565,1.133 -0.678,1.521 L -6.94,3.38 c -2.755,0.839 -3.712,1.189 -4.131,1.211 l -0.042,-0.068 c 0.235,-0.325 1.175,-1.311 2.942,-3.169 l 4.408,-4.614 c 1.1,-1.129 1.142,-1.061 1.631,-0.253 z m -0.435,-5.282 c -0.531,-0.876 -0.508,-0.843 0.522,-1.887 l 4.561,-4.66 c 2.246,-2.287 2.418,-2.207 3.448,-1.121 l 0.819,0.842 c 0.458,0.045 1.247,-0.481 1.264,-0.86 -0.745,-1.023 -1.422,-2.139 -2.306,-3.496 -0.676,-1.115 -1.268,-2.189 -1.894,-3.427 -0.368,-0.097 -1.065,0.279 -1.328,0.759 l 0.392,1.15 c 0.369,1.116 0.232,1.706 -0.944,3.113 -0.923,1.116 -2.489,2.805 -4.488,4.988 l -13.222,14.35 c -1.193,1.28 -2.068,2.274 -2.896,2.636 0.403,1.374 -0.768,3.607 -0.726,3.674 0.164,0.27 0.401,0.358 0.709,0.358 2.354,-0.692 4.736,-1.535 7.086,-2.226 L 12.378,2.329 c 3.485,-1.054 3.858,-1.05 5.355,0.402 l 0.441,0.422 c 0.48,0.08 1.246,-0.383 1.328,-0.758 -0.933,-1.331 -1.735,-2.552 -2.798,-4.308 -0.883,-1.452 -1.692,-2.99 -2.367,-4.199 -0.389,-0.135 -1.22,0.324 -1.367,0.691 l 0.316,0.825 c 0.514,1.349 0.347,1.682 -1.852,2.325 L 4.347,-0.145 C 2.947,0.289 2.866,0.154 2.29,-0.789 Z"
             style="fill:#cc8a00;fill-opacity:1;fill-rule:nonzero;stroke:none"
             id="path71" /></g><g
           id="g73"
           transform="translate(562.7227,512.9854)"
           style="fill:#cc8a00;fill-opacity:1"><path
             d="m 0,0 c 0.42,0.148 1.213,-0.623 1.079,-1.086 -1.222,-1.187 -2.295,-2.291 -3.357,-3.46 -1.247,-1.374 -2.35,-2.666 -3.442,-4.024 -0.368,-0.091 -1.216,0.465 -1.183,0.969 l 0.521,0.964 c 0.791,1.42 0.597,1.754 -2.056,4.162 l -15.942,14.481 -0.054,-0.058 c 1.428,-2.735 2.228,-4.209 3.282,-6.178 l 4.578,-8.748 c 1.825,-3.473 4.825,-8.864 6.178,-11.054 0.05,-0.259 -0.348,-0.697 -0.691,-0.762 -2.556,1.416 -7.518,3.629 -10.078,4.728 l -9.848,4.195 c -2.14,0.932 -5.313,2.373 -6.801,3.085 l -0.054,-0.058 c 1.858,-1.795 4.846,-4.614 6.431,-6.16 2.323,-2.218 5.74,-5.429 8.937,-8.333 2.573,-2.335 3.183,-2.839 4.636,-1.864 l 1.109,0.755 c 0.419,-0.009 1.162,-0.684 1.104,-1.058 -1.059,-1.011 -1.919,-1.88 -2.903,-2.964 -0.848,-0.935 -1.766,-2.023 -2.724,-3.232 -0.434,-0.087 -1.174,0.585 -1.209,0.939 l 0.372,0.567 c 1.041,1.616 0.641,2.351 -1.549,4.715 -2.27,2.434 -4.727,4.826 -8.646,8.653 -2.544,2.523 -5.622,5.639 -8,7.8 -1.833,1.663 -3.009,1.931 -4.317,1.041 l -1.139,-0.784 c -0.429,0.073 -1.144,0.777 -1.024,1.144 0.878,0.807 1.63,1.561 2.613,2.642 0.929,1.022 1.861,2.048 2.725,3.235 2.447,-2.007 5.137,-3.118 7.931,-4.269 l 11.926,-4.962 c 0.874,-0.371 3.513,-1.381 4.755,-1.815 -0.703,1.496 -1.45,2.866 -2.672,5.203 l -4.99,9.548 c -1.724,3.272 -3.173,6.294 -5.294,9.128 0.795,0.719 1.709,1.649 2.294,2.292 1.114,1.229 2.007,2.288 2.672,3.177 0.447,0.179 1.241,-0.437 1.209,-0.939 l -0.684,-1.143 c -0.893,-1.534 -0.536,-2.392 1.532,-4.269 5.77,-5.239 11.59,-10.421 17.545,-15.456 2.692,-2.285 3.219,-2.179 4.263,-1.419 z"
             style="fill:#cc8a00;fill-opacity:1;fill-rule:nonzero;stroke:none"
             id="path75" /></g><g
           id="g77"
           transform="translate(566.6045,541.1406)"
           style="fill:#cc8a00;fill-opacity:1"><path
             d="m 0,0 c 0.791,-1.182 1.349,-1.948 1.875,-1.596 0.624,0.415 0.706,1.928 0.737,4.229 l 0.129,7.055 c 0.047,0.855 0.036,2.936 -0.039,3.9 C 2.621,14.99 2.421,15.36 1.937,15.229 L 0.654,14.942 c -0.466,0.132 -0.808,0.788 -0.782,1.313 1.438,0.835 2.552,1.516 3.768,2.327 1.411,0.944 2.369,1.712 3.523,2.547 0.449,0.108 1.129,-0.767 0.949,-1.206 C 5.437,17.316 5.253,15.672 4.948,11.223 4.794,8.397 4.68,5.724 4.54,3.158 4.495,2.371 4.606,2.064 5.407,1.649 c 5.637,-2.821 12.239,-5.945 17.061,-8.044 1.421,-0.632 2.438,-0.521 3.543,-0.039 l 0.874,0.397 c 0.378,-0.067 0.96,-1.008 0.782,-1.315 -1.207,-0.681 -2.548,-1.515 -4.29,-2.679 -1.61,-1.073 -3.058,-2.108 -4.444,-3.157 -0.48,-0.068 -1.063,0.808 -0.914,1.224 l 0.768,0.769 C 19.256,-10.758 19,-10.231 18.229,-9.86 15.327,-8.506 6.678,-4.023 4.353,-3.172 3.918,-3.02 3.422,-2.844 3.126,-3.042 2.304,-3.59 3.073,-4.597 3.921,-5.866 l 3.717,-5.562 c 3.1,-4.64 3.484,-4.575 5.202,-3.804 l 0.909,0.415 c 0.378,-0.065 0.93,-0.961 0.782,-1.313 -1.6,-0.946 -3.108,-1.888 -4.552,-2.853 -1.446,-0.965 -2.959,-2.041 -4.084,-2.92 -0.378,0.002 -0.997,0.853 -0.915,1.227 l 0.404,0.396 c 1.336,1.337 1.545,1.664 -1.555,6.305 L -7.057,2.314 c -3.1,4.642 -3.457,4.532 -5.205,3.806 l -0.711,-0.286 c -0.434,0.152 -0.929,0.964 -0.782,1.315 1.402,0.811 2.91,1.756 4.423,2.767 1.443,0.962 2.894,1.995 4.116,2.938 0.379,0 0.996,-0.854 0.914,-1.225 l -0.47,-0.505 C -6.082,9.742 -6.352,9.5 -3.248,4.858 Z"
             style="fill:#cc8a00;fill-opacity:1;fill-rule:nonzero;stroke:none"
             id="path79" /></g><g
           id="g81"
           transform="translate(591.9902,554.6504)"
           style="fill:#cc8a00;fill-opacity:1"><path
             d="m 0,0 c 0.733,-1.519 0.778,-1.612 2.485,-0.79 3.487,1.685 3.988,4.732 1.816,9.238 -1.807,3.747 -5.2,6.144 -8.295,4.652 -1.851,-0.894 -1.818,-1.053 -0.766,-3.235 z m -7.421,4.841 c -2.195,4.553 -2.507,5.103 -4.292,4.533 l -0.994,-0.305 c -0.411,0.214 -0.776,0.971 -0.607,1.346 2.103,1.367 5.06,2.967 7.978,4.375 2.774,1.34 5.423,2.031 7.535,1.647 C 4.634,16.033 7.023,14.438 8.673,11.023 10.776,6.662 9.302,3.26 8.018,1.472 7.873,1.226 8.126,0.879 8.407,0.665 c 5.933,-5.029 9.658,-8.202 12.222,-9.249 1.545,-0.657 2.714,-0.443 3.164,-0.283 0.268,-0.105 0.52,-0.626 0.53,-0.915 -0.359,-0.349 -0.965,-0.818 -2.211,-1.417 -3.414,-1.65 -6.156,-0.693 -10.455,2.674 C 9.734,-6.996 7.479,-4.87 5.734,-3.432 4.408,-2.319 3.924,-2.317 2.75,-2.882 1.684,-3.396 1.67,-3.464 2.151,-4.459 l 2.929,-6.068 c 2.425,-5.031 2.814,-5.017 4.622,-4.494 l 0.853,0.232 c 0.409,-0.21 0.784,-1.082 0.593,-1.406 -1.613,-0.661 -3.237,-1.387 -4.799,-2.141 -1.567,-0.755 -3.146,-1.577 -4.737,-2.459 -0.374,0.052 -0.894,0.855 -0.734,1.339 l 0.716,0.521 c 1.533,1.091 1.785,1.387 -0.64,6.416 z"
             style="fill:#cc8a00;fill-opacity:1;fill-rule:nonzero;stroke:none"
             id="path83" /></g><g
           id="g85"
           transform="translate(619.7061,554.1943)"
           style="fill:#cc8a00;fill-opacity:1"><path
             d="m 0,0 c 1.976,-5.219 2.366,-5.239 4.213,-4.879 l 0.87,0.161 C 5.472,-4.966 5.769,-5.866 5.551,-6.175 3.888,-6.691 2.208,-7.272 0.583,-7.89 c -1.628,-0.613 -3.342,-1.321 -4.932,-2.035 -0.371,0.083 -0.743,0.957 -0.615,1.399 l 0.758,0.455 c 1.623,0.955 1.899,1.228 -0.08,6.448 l -6.942,18.317 c -1.976,5.223 -2.364,5.243 -4.212,4.88 l -0.868,-0.161 c -0.388,0.247 -0.689,1.149 -0.467,1.457 1.663,0.517 3.342,1.098 5.04,1.741 1.628,0.617 3.269,1.295 4.856,2.009 0.37,-0.083 0.743,-0.957 0.615,-1.398 l -0.755,-0.455 c -1.627,-0.955 -1.899,-1.229 0.078,-6.449 z"
             style="fill:#cc8a00;fill-opacity:1;fill-rule:nonzero;stroke:none"
             id="path87" /></g><g
           id="g89"
           transform="translate(627.4404,550.5967)"
           style="fill:#cc8a00;fill-opacity:1"><path
             d="m 0,0 c -0.968,0.888 -2.391,4.271 -3.182,7.437 0.093,0.57 0.731,0.792 1.129,0.516 1.372,-2.415 4.867,-7.322 8.612,-6.335 2.901,0.763 3.927,3.538 3.11,6.645 -0.766,2.904 -2.413,4.974 -5.842,6.359 l -1.964,0.791 c -3.425,1.382 -6.766,3.826 -7.973,8.407 -1.326,5.044 0.374,10.065 5.951,11.534 1.986,0.521 3.596,0.293 5.512,0.308 C 6.069,34.653 7.337,31.39 7.965,28.998 7.895,28.49 7.223,28.257 6.784,28.523 5.513,31.02 3.278,34.08 0.033,33.226 -3.023,32.423 -3.585,29.441 -2.877,26.743 -2.312,24.602 -0.602,22.602 2.39,21.484 L 5.198,20.43 C 8.137,19.35 11.717,16.916 13.073,11.772 14.6,5.967 12.363,0.967 6.827,-0.49 3.313,-1.417 0.926,-0.411 0,0"
             style="fill:#cc8a00;fill-opacity:1;fill-rule:nonzero;stroke:none"
             id="path91" /></g><g
           id="g93"
           transform="translate(649.4912,585.2773)"
           style="fill:#cc8a00;fill-opacity:1"><path
             d="M 0,0 C -0.338,2.188 -0.392,2.284 -1.407,2.126 L -3.594,1.792 c -3.589,-0.552 -4.555,-1.289 -5.35,-5.728 -0.225,-0.351 -1.069,-0.321 -1.307,0.175 0.231,2.91 0.319,6.228 0.313,8.091 0.053,0.17 0.204,0.244 0.397,0.274 0.156,0.025 0.32,-0.003 0.423,-0.146 0.397,-1.272 0.95,-1.24 3.605,-0.829 L 10.413,6.08 c 1.912,0.293 2.474,0.539 2.759,1.809 0.14,0.128 0.279,0.255 0.434,0.279 0.234,0.035 0.447,-0.037 0.549,-0.183 -0.063,-2.193 0.314,-6.716 0.688,-8.364 -0.131,-0.447 -0.779,-0.653 -1.185,-0.344 -1.133,3.984 -2.027,4.858 -6.205,4.215 L 5.229,3.149 C 4.213,2.991 4.192,2.883 4.526,0.696 L 7.99,-21.788 c 0.849,-5.514 1.223,-5.618 3.098,-5.594 l 1.438,0.006 c 0.328,-0.32 0.435,-1.264 0.154,-1.521 -2.279,-0.243 -4.044,-0.462 -5.764,-0.726 -1.717,-0.264 -3.543,-0.6 -6.025,-1.089 -0.345,0.159 -0.542,1.194 -0.309,1.497 L 2.18,-28.7 c 1.786,0.595 2.13,0.699 1.28,6.216 z"
             style="fill:#cc8a00;fill-opacity:1;fill-rule:nonzero;stroke:none"
             id="path95" /></g><g
           id="g97"
           transform="translate(703.8906,558.3984)"
           style="fill:#cc8a00;fill-opacity:1"><path
             d="m 0,0 c 0.386,-0.226 0.303,-1.329 -0.139,-1.521 -1.692,0.17 -3.229,0.285 -4.808,0.346 -1.856,0.072 -3.554,0.087 -5.296,0.047 -0.306,0.225 -0.424,1.23 -0.017,1.531 l 1.073,0.223 c 1.596,0.304 1.729,0.667 1.869,4.247 l 0.846,21.518 -0.08,0.005 c -1.18,-2.853 -1.795,-4.411 -2.629,-6.486 l -3.757,-9.124 c -1.485,-3.632 -3.687,-9.396 -4.495,-11.841 -0.166,-0.205 -0.758,-0.179 -1.027,0.041 -0.559,2.868 -2.053,8.089 -2.858,10.756 l -3.116,10.239 c -0.662,2.241 -1.598,5.599 -2.01,7.195 l -0.078,0.002 c -0.18,-2.574 -0.421,-6.676 -0.587,-8.883 -0.203,-3.206 -0.467,-7.886 -0.635,-12.198 -0.138,-3.475 -0.13,-4.264 1.552,-4.753 l 1.289,-0.367 c 0.263,-0.326 0.223,-1.325 -0.098,-1.523 -1.456,0.162 -2.677,0.264 -4.139,0.32 -1.262,0.049 -2.684,0.052 -4.231,0.008 -0.342,0.278 -0.305,1.277 -0.057,1.53 l 0.675,0.078 c 1.909,0.241 2.215,1.019 2.616,4.218 0.408,3.304 0.662,6.72 1.073,12.186 0.298,3.57 0.704,7.931 0.833,11.138 0.096,2.472 -0.455,3.549 -1.979,3.977 l -1.33,0.367 c -0.222,0.381 -0.145,1.379 0.219,1.52 1.179,-0.15 2.243,-0.244 3.704,-0.301 1.381,-0.055 2.761,-0.109 4.228,-0.008 0.032,-3.165 0.911,-5.938 1.827,-8.821 l 3.865,-12.323 c 0.278,-0.907 1.204,-3.579 1.668,-4.809 0.691,1.5 1.262,2.953 2.266,5.391 l 4.107,9.958 c 1.4,3.422 2.783,6.478 3.592,9.923 1.061,-0.148 2.36,-0.25 3.231,-0.285 1.657,-0.064 3.042,-0.066 4.148,-0.003 0.427,-0.23 0.467,-1.231 0.06,-1.533 l -1.314,-0.21 c -1.748,-0.3 -2.177,-1.129 -2.288,-3.915 -0.305,-7.787 -0.531,-15.579 -0.56,-23.378 -0.022,-3.53 0.4,-3.862 1.654,-4.174 z"
             style="fill:#cc8a00;fill-opacity:1;fill-rule:nonzero;stroke:none"
             id="path99" /></g><g
           id="g101"
           transform="translate(714.7168,582.4014)"
           style="fill:#cc8a00;fill-opacity:1"><path
             d="M 0,0 C 1.088,5.475 0.783,5.752 -0.979,6.424 L -1.575,6.647 C -1.774,7.064 -1.553,7.985 -1.202,8.13 0.249,7.735 2.06,7.32 3.763,6.981 l 7.401,-1.47 C 13.641,5.019 15.898,4.625 16.424,4.629 16.403,3.72 15.826,-0.406 15.615,-2.675 15.378,-3.058 14.584,-3.007 14.334,-2.635 14.312,0.483 13.975,1.838 12.829,2.549 11.998,3.036 10.87,3.424 9.822,3.63 L 7.229,4.146 C 5.562,4.478 5.541,4.375 4.956,1.432 L 3.223,-7.299 C 2.954,-8.641 2.98,-8.7 3.874,-8.878 l 1.858,-0.369 c 3.371,-0.67 3.962,-0.732 4.75,1.418 l 0.624,1.703 c 0.38,0.299 1.116,0.153 1.227,-0.3 -0.316,-1.387 -0.763,-3.231 -1.143,-5.141 -0.39,-1.96 -0.672,-3.784 -0.962,-5.445 -0.266,-0.323 -1.001,-0.176 -1.248,0.196 l 0.139,2.117 c 0.16,2.222 -0.477,2.457 -3.847,3.127 l -1.861,0.373 c -0.89,0.174 -0.948,0.079 -1.206,-1.213 L 0.9,-18.97 c -0.522,-2.634 -0.815,-4.509 -0.408,-5.502 0.32,-0.814 0.906,-1.308 4.152,-2.007 4.908,-1.028 6.047,0.249 8.234,4.163 0.423,0.292 1.05,0.004 1.178,-0.557 -0.661,-2.125 -2.296,-5.881 -3.116,-7.167 -1.682,0.443 -5.004,1.158 -9.537,2.059 l -4.415,0.877 c -1.703,0.339 -4.079,0.757 -5.84,1 -0.27,0.267 -0.123,1.205 0.219,1.514 l 1.473,-0.079 c 1.874,-0.105 2.251,-0.018 3.339,5.454 z"
             style="fill:#cc8a00;fill-opacity:1;fill-rule:nonzero;stroke:none"
             id="path103" /></g><g
           id="g105"
           transform="translate(754.4492,552.0566)"
           style="fill:#cc8a00;fill-opacity:1"><path
             d="m 0,0 c -0.547,-1.481 -2.788,-7.559 -3.096,-8.735 -0.497,-0.437 -1.087,-0.443 -1.514,-0.228 -0.211,1.256 -0.666,3.333 -1.839,8.367 l -3.804,16.39 c -1.022,4.531 -1.572,6.81 -1.927,7.783 -0.111,0.04 -0.312,-0.503 -1.279,-3.121 l -3.554,-9.635 c -1.366,-3.705 -3.005,-8.261 -2.924,-9.977 0.062,-0.865 0.565,-1.441 1.436,-1.932 l 0.761,-0.451 c 0.207,-0.468 -0.177,-1.394 -0.603,-1.403 -1.334,0.603 -2.762,1.187 -4.17,1.706 -1.555,0.573 -2.573,0.893 -3.906,1.273 -0.206,0.356 0.029,1.223 0.454,1.459 l 0.905,-0.054 c 0.779,-0.06 1.497,-0.16 2.049,0.537 1.048,1.352 2.632,5.652 4.071,9.555 l 4.319,11.708 c 1.422,3.854 1.752,4.629 1.02,6.527 -0.245,0.594 -1.134,1.375 -1.599,1.713 l -0.501,0.353 c -0.151,0.392 0.253,1.367 0.676,1.38 1.335,-0.719 3.39,-1.422 4.317,-1.762 0.776,-0.287 1.687,-0.564 2.613,-0.796 -0.154,-2.356 1.588,-10.072 2.192,-12.427 l 1.736,-6.701 c 0.721,-2.847 2.233,-9.357 2.494,-9.788 0.167,0.105 0.257,0.352 0.55,1.143 l 3.554,9.636 c 1.366,3.705 3.005,8.261 2.884,9.991 -0.058,0.864 -0.524,1.429 -1.396,1.918 l -0.797,0.464 c -0.207,0.467 0.177,1.393 0.602,1.403 1.408,-0.63 2.762,-1.188 4.207,-1.719 1.592,-0.587 2.573,-0.894 3.943,-1.287 0.207,-0.355 -0.029,-1.223 -0.451,-1.459 l -0.945,0.067 C 9.703,21.958 9.016,22.045 8.466,21.349 7.382,20.009 5.795,15.709 4.355,11.807 Z"
             style="fill:#cc8a00;fill-opacity:1;fill-rule:nonzero;stroke:none"
             id="path107" /></g><g
           id="g109"
           transform="translate(782.1035,537.9639)"
           style="fill:#cc8a00;fill-opacity:1"><path
             d="m 0,0 c -0.748,-1.39 -3.813,-7.099 -4.284,-8.222 -0.551,-0.36 -1.139,-0.282 -1.53,-0.013 -0.036,1.274 -0.194,3.395 -0.657,8.544 L -7.96,17.067 c -0.384,4.629 -0.609,6.963 -0.826,7.977 -0.105,0.055 -0.376,-0.455 -1.699,-2.913 l -4.862,-9.048 c -1.866,-3.478 -4.124,-7.763 -4.279,-9.474 -0.062,-0.864 0.355,-1.506 1.149,-2.114 l 0.69,-0.549 c 0.141,-0.494 -0.367,-1.355 -0.792,-1.308 -1.237,0.784 -2.568,1.558 -3.891,2.27 -1.461,0.786 -2.426,1.245 -3.693,1.804 -0.153,0.382 0.2,1.209 0.654,1.383 l 0.891,-0.178 c 0.76,-0.172 1.461,-0.367 2.1,0.243 1.225,1.196 3.393,5.233 5.364,8.897 l 5.906,10.994 c 1.944,3.618 2.377,4.342 1.917,6.323 -0.157,0.621 -0.933,1.517 -1.344,1.917 l -0.447,0.42 c -0.097,0.408 0.438,1.319 0.86,1.269 1.223,-0.895 3.163,-1.876 4.032,-2.344 0.731,-0.392 1.591,-0.792 2.474,-1.151 -0.478,-2.311 0.173,-10.194 0.443,-12.609 l 0.792,-6.879 c 0.312,-2.919 0.906,-9.577 1.104,-10.041 0.182,0.083 0.305,0.314 0.703,1.056 l 4.86,9.048 c 1.868,3.477 4.128,7.766 4.25,9.493 0.059,0.865 -0.322,1.488 -1.12,2.094 l -0.722,0.569 c -0.139,0.494 0.367,1.355 0.792,1.308 1.304,-0.823 2.567,-1.561 3.927,-2.289 1.495,-0.802 2.423,-1.242 3.727,-1.823 0.153,-0.382 -0.2,-1.21 -0.654,-1.383 l -0.924,0.197 c -0.761,0.171 -1.427,0.348 -2.068,-0.262 -1.261,-1.178 -3.429,-5.213 -5.397,-8.878 z"
             style="fill:#cc8a00;fill-opacity:1;fill-rule:nonzero;stroke:none"
             id="path111" /></g><g
           id="g113"
           transform="translate(808.8799,532.8008)"
           style="fill:#cc8a00;fill-opacity:1"><path
             d="m 0,0 c -0.955,-1.054 -1.563,-1.779 -1.098,-2.206 0.557,-0.506 2.044,-0.218 4.283,0.31 l 6.878,1.581 c 0.837,0.158 2.855,0.676 3.771,0.982 1.342,0.418 1.655,0.703 1.41,1.138 l -0.587,1.174 c 0.011,0.487 0.569,0.977 1.083,1.078 1.157,-1.193 2.087,-2.111 3.168,-3.09 1.258,-1.142 2.235,-1.887 3.323,-2.805 0.215,-0.408 -0.468,-1.281 -0.939,-1.209 -3.18,1.963 -4.818,1.744 -9.207,0.964 C 9.304,-2.618 6.685,-3.154 4.162,-3.64 3.386,-3.788 3.117,-3.968 2.906,-4.846 c -1.373,-6.151 -2.807,-13.311 -3.678,-18.5 -0.269,-1.531 0.083,-2.492 0.819,-3.445 l 0.596,-0.752 c 0.025,-0.383 -0.747,-1.173 -1.086,-1.079 -0.953,1.009 -2.087,2.107 -3.634,3.517 -1.434,1.3 -2.784,2.454 -4.143,3.545 -0.179,0.449 0.531,1.228 0.967,1.184 l 0.932,-0.561 c 0.542,-0.346 0.988,0.029 1.161,0.867 0.615,3.14 2.87,12.615 3.136,15.081 0.044,0.458 0.092,0.982 -0.173,1.22 -0.731,0.665 -1.522,-0.324 -2.547,-1.457 l -4.498,-4.95 c -3.75,-4.129 -3.597,-4.486 -2.434,-5.968 l 0.626,-0.781 c 0.027,-0.379 -0.711,-1.133 -1.085,-1.078 -1.303,1.326 -2.584,2.562 -3.872,3.73 -1.285,1.167 -2.696,2.375 -3.816,3.252 -0.095,0.369 0.584,1.177 0.967,1.184 l 0.48,-0.293 c 1.622,-0.973 1.991,-1.096 5.745,3.036 L 0.539,7.405 c 3.754,4.132 3.56,4.45 2.434,5.971 l -0.449,0.622 c 0.044,0.458 0.707,1.133 1.085,1.075 C 4.736,13.909 6.017,12.674 7.362,11.452 8.646,10.284 9.997,9.128 11.209,8.174 11.301,7.805 10.622,6.997 10.243,6.989 L 9.639,7.322 C 7.981,8.259 7.682,8.458 3.932,4.326 Z"
             style="fill:#cc8a00;fill-opacity:1;fill-rule:nonzero;stroke:none"
             id="path115" /></g><g
           id="g117"
           transform="translate(827.9922,511.3105)"
           style="fill:#cc8a00;fill-opacity:1"><path
             d="m 0,0 c -1.296,-1.077 -1.376,-1.146 -0.165,-2.602 2.475,-2.975 5.555,-2.725 9.403,0.473 3.197,2.663 4.7,6.533 2.503,9.174 -1.313,1.581 -1.458,1.51 -3.32,-0.04 z m 2.899,8.37 c 3.886,3.235 4.349,3.669 3.366,5.265 l -0.536,0.89 c 0.105,0.448 0.753,0.987 1.159,0.913 1.832,-1.71 4.1,-4.191 6.17,-6.68 1.969,-2.368 3.284,-4.77 3.423,-6.914 0.195,-2.458 -0.774,-5.163 -3.689,-7.59 C 9.067,-8.844 5.413,-8.237 3.366,-7.422 3.092,-7.342 2.82,-7.671 2.677,-7.994 c -3.447,-6.977 -5.622,-11.357 -6.014,-14.1 -0.266,-1.655 0.223,-2.74 0.487,-3.136 -0.037,-0.289 -0.483,-0.658 -0.76,-0.736 -0.423,0.264 -1.025,0.739 -1.909,1.802 -2.426,2.916 -2.159,5.808 0.065,10.792 1.02,2.235 2.538,4.937 3.511,6.977 0.76,1.559 0.643,2.027 -0.189,3.03 -0.759,0.91 -0.821,0.905 -1.672,0.2 l -5.183,-4.312 c -4.291,-3.57 -4.187,-3.942 -3.242,-5.571 l 0.434,-0.77 c -0.106,-0.448 -0.86,-1.025 -1.225,-0.917 -1.028,1.404 -2.125,2.803 -3.238,4.141 -1.111,1.334 -2.287,2.667 -3.527,3.998 -0.042,0.376 0.61,1.074 1.121,1.034 l 0.678,-0.564 c 1.429,-1.227 1.779,-1.398 6.067,2.172 z"
             style="fill:#cc8a00;fill-opacity:1;fill-rule:nonzero;stroke:none"
             id="path119" /></g><g
           id="g121"
           transform="translate(842.0654,492.1279)"
           style="fill:#cc8a00;fill-opacity:1"><path
             d="m 0,0 c -6.182,-3.824 -13.371,-11.014 -9.816,-16.758 2.367,-3.827 8.086,-4.563 17.087,1.01 6.76,4.182 13.184,11.316 9.878,16.654 C 15.071,4.265 9.536,5.903 0,0 m 10.905,-19.816 c -8.822,-5.46 -18.522,-4.497 -22.722,2.285 -4.698,7.592 -0.281,16.363 7.691,21.295 9.134,5.654 18.972,4.868 23.337,-2.185 4.802,-7.759 -0.157,-16.353 -8.306,-21.395"
             style="fill:#cc8a00;fill-opacity:1;fill-rule:nonzero;stroke:none"
             id="path123" /></g><g
           id="g125"
           transform="translate(840.7822,460.4531)"
           style="fill:#cc8a00;fill-opacity:1"><path
             d="M 0,0 C 0.744,1.083 3.896,2.961 6.922,4.187 7.499,4.172 7.809,3.575 7.588,3.139 5.388,1.444 1.016,-2.698 2.515,-6.268 c 1.16,-2.77 4.052,-3.398 7.014,-2.158 2.767,1.163 4.588,3.082 5.483,6.671 l 0.507,2.054 c 0.894,3.586 2.849,7.231 7.217,9.064 4.807,2.017 10.018,1.034 12.249,-4.284 0.794,-1.895 0.793,-3.522 1.075,-5.42 -0.904,-0.846 -3.956,-2.555 -6.237,-3.513 -0.512,0 -0.837,0.634 -0.635,1.105 2.296,1.604 5.014,4.244 3.715,7.34 C 31.682,7.505 28.654,7.648 26.081,6.568 24.042,5.715 22.297,3.741 21.605,0.626 l -0.653,-2.933 c -0.657,-3.059 -2.567,-6.945 -7.474,-9 C 7.944,-13.63 2.68,-12.112 0.466,-6.829 -0.939,-3.479 -0.279,-0.972 0,0"
             style="fill:#cc8a00;fill-opacity:1;fill-rule:nonzero;stroke:none"
             id="path127" /></g><g
           id="g129"
           transform="translate(847.916,443.6885)"
           style="fill:#cc8a00;fill-opacity:1"><path
             d="M 0,0 C 0.836,1.016 4.14,2.611 7.263,3.571 7.836,3.506 8.093,2.883 7.835,2.469 5.495,0.974 0.778,-2.777 1.958,-6.464 c 0.916,-2.857 3.741,-3.735 6.803,-2.756 2.857,0.913 4.84,2.667 6.043,6.165 l 0.682,2.001 c 1.203,3.494 3.471,6.957 7.983,8.403 4.966,1.589 10.07,0.156 11.829,-5.334 0.625,-1.958 0.481,-3.578 0.595,-5.491 -0.97,-0.767 -4.16,-2.204 -6.517,-2.96 -0.512,0.045 -0.779,0.707 -0.537,1.158 2.428,1.4 5.367,3.792 4.344,6.988 C 32.218,4.721 29.211,5.124 26.554,4.272 24.449,3.598 22.541,1.786 21.58,-1.258 L 20.674,-4.12 c -0.923,-2.991 -3.167,-6.693 -8.23,-8.316 C 6.726,-14.268 1.617,-12.297 -0.13,-6.844 -1.237,-3.382 -0.358,-0.945 0,0"
             style="fill:#cc8a00;fill-opacity:1;fill-rule:nonzero;stroke:none"
             id="path131" /></g><g
           id="g133"
           transform="translate(858.8516,393.6777)"
           style="fill:#cc8a00;fill-opacity:1"><path
             d="m 0,0 c -0.148,-0.422 -1.247,-0.55 -1.521,-0.153 -0.153,1.696 -0.337,3.224 -0.576,4.788 -0.283,1.832 -0.594,3.503 -0.962,5.203 0.161,0.345 1.123,0.656 1.497,0.312 L -1.14,9.135 C -0.535,7.632 -0.151,7.57 3.388,8.114 l 21.284,3.279 -0.011,0.075 c -3.026,0.615 -4.668,0.921 -6.867,1.342 l -9.676,1.946 c -3.849,0.766 -9.925,1.83 -12.478,2.155 -0.234,0.127 -0.324,0.709 -0.159,1.016 2.71,1.096 7.551,3.558 10.017,4.859 l 9.455,5.011 c 2.072,1.079 5.191,2.638 6.68,3.345 l -0.014,0.081 C 19.061,30.905 14.987,30.36 12.789,30.102 9.601,29.689 4.958,29.055 0.689,28.398 -2.744,27.868 -3.521,27.711 -3.68,25.967 l -0.112,-1.336 c -0.271,-0.32 -1.259,-0.473 -1.514,-0.191 -0.12,1.458 -0.255,2.676 -0.475,4.122 -0.194,1.249 -0.461,2.645 -0.801,4.153 0.208,0.389 1.195,0.542 1.492,0.349 l 0.206,-0.647 c 0.601,-1.826 1.423,-1.981 4.642,-1.766 3.32,0.233 6.72,0.637 12.165,1.276 3.563,0.388 7.92,0.818 11.095,1.308 2.445,0.375 3.395,1.121 3.526,2.7 l 0.107,1.376 c 0.327,0.288 1.323,0.402 1.533,0.075 0.077,-1.188 0.187,-2.249 0.407,-3.695 0.213,-1.364 0.422,-2.732 0.801,-4.153 -3.1,-0.634 -5.655,-2.028 -8.31,-3.476 L 9.721,19.918 C 8.885,19.471 6.438,18.056 5.318,17.362 6.924,16.971 8.461,16.688 11.046,16.167 l 10.557,-2.134 c 3.626,-0.718 6.888,-1.494 10.425,-1.63 0.061,-1.069 0.206,-2.364 0.336,-3.223 C 32.617,7.537 32.88,6.181 33.151,5.104 33.011,4.642 32.034,4.414 31.66,4.755 l -0.458,1.248 c -0.628,1.663 -1.519,1.925 -4.28,1.5 C 19.221,6.316 11.53,5.053 3.869,3.593 0.399,2.938 0.153,2.462 0.085,1.172 Z"
             style="fill:#cc8a00;fill-opacity:1;fill-rule:nonzero;stroke:none"
             id="path135" /></g><g
           id="g137"
           transform="translate(884.2627,387.6416)"
           style="fill:#cc8a00;fill-opacity:1"><path
             d="m 0,0 c 5.582,-0.025 5.795,0.33 6.117,2.187 l 0.108,0.63 C 6.594,3.095 7.543,3.05 7.754,2.731 7.64,1.231 7.581,-0.624 7.574,-2.363 L 7.541,-9.904 c -0.012,-2.531 0.031,-4.82 0.135,-5.334 -0.894,-0.155 -5.057,-0.375 -7.322,-0.602 -0.422,0.161 -0.523,0.952 -0.206,1.265 3.057,0.62 4.325,1.207 4.802,2.47 0.321,0.906 0.483,2.091 0.487,3.156 l 0.011,2.645 c 0.01,1.699 -0.095,1.701 -3.098,1.713 l -8.898,0.039 c -1.369,0.005 -1.423,-0.035 -1.428,-0.941 L -7.982,-7.39 c -0.016,-3.437 0.037,-4.028 2.295,-4.394 l 1.791,-0.284 c 0.366,-0.319 0.366,-1.07 -0.058,-1.266 -1.421,0.047 -3.317,0.135 -5.266,0.143 -2,0.006 -3.843,-0.063 -5.529,-0.094 -0.368,0.197 -0.364,0.949 -0.047,1.262 l 2.108,0.267 c 2.213,0.269 2.321,0.941 2.334,4.374 l 0.01,1.897 c 0.004,0.91 -0.1,0.949 -1.417,0.953 l -6.687,0.027 c -2.686,0.013 -4.585,-0.058 -5.48,-0.647 -0.739,-0.468 -1.111,-1.137 -1.176,-4.458 -0.076,-5.016 1.392,-5.89 5.653,-7.289 0.368,-0.36 0.208,-1.03 -0.32,-1.263 -2.21,0.246 -6.209,1.132 -7.628,1.69 0.112,1.74 0.179,5.135 0.199,9.754 l 0.02,4.502 c 0.007,1.739 -0.037,4.15 -0.132,5.928 0.212,0.314 1.16,0.35 1.527,0.072 l 0.204,-1.464 c 0.255,-1.856 0.411,-2.214 5.993,-2.239 z"
             style="fill:#cc8a00;fill-opacity:1;fill-rule:nonzero;stroke:none"
             id="path139" /></g><g
           id="g141"
           transform="translate(862.251,343.1719)"
           style="fill:#cc8a00;fill-opacity:1"><path
             d="m 0,0 c -1.563,0.227 -7.974,1.154 -9.189,1.212 -0.529,0.396 -0.66,0.974 -0.538,1.434 1.184,0.467 3.123,1.344 7.802,3.538 l 15.242,7.129 c 4.219,1.942 6.334,2.955 7.212,3.504 0.018,0.12 -0.557,0.202 -3.318,0.603 L 7.046,18.893 C 3.14,19.459 -1.662,20.116 -3.32,19.677 -4.154,19.437 -4.614,18.826 -4.915,17.87 l -0.279,-0.835 c -0.416,-0.299 -1.4,-0.116 -1.499,0.296 0.313,1.432 0.586,2.95 0.8,4.436 0.239,1.64 0.339,2.703 0.434,4.086 0.305,0.276 1.204,0.225 1.521,-0.142 l 0.137,-0.898 c 0.101,-0.772 0.156,-1.5 0.949,-1.892 1.542,-0.742 6.077,-1.4 10.194,-1.995 l 12.352,-1.793 c 4.065,-0.589 4.894,-0.746 6.597,0.362 0.533,0.361 1.108,1.396 1.343,1.921 l 0.242,0.563 c 0.35,0.228 1.389,0.039 1.488,-0.374 -0.423,-1.457 -0.683,-3.615 -0.826,-4.589 -0.117,-0.825 -0.203,-1.769 -0.233,-2.722 -2.339,-0.34 -9.522,-3.649 -11.7,-4.729 L 10.408,6.471 C 7.772,5.178 1.725,2.344 1.354,1.998 1.493,1.858 1.753,1.821 2.589,1.701 L 12.751,0.226 c 3.909,-0.567 8.71,-1.221 10.373,-0.745 0.834,0.24 1.29,0.811 1.587,1.767 l 0.286,0.875 c 0.417,0.299 1.4,0.115 1.5,-0.296 -0.325,-1.512 -0.586,-2.95 -0.806,-4.473 -0.244,-1.68 -0.34,-2.706 -0.44,-4.125 -0.307,-0.277 -1.203,-0.226 -1.522,0.138 l -0.131,0.938 c -0.101,0.771 -0.161,1.459 -0.953,1.855 -1.54,0.778 -6.071,1.436 -10.19,2.035 z"
             style="fill:#cc8a00;fill-opacity:1;fill-rule:nonzero;stroke:none"
             id="path143" /></g><g
           id="g145"
           transform="translate(853.4424,311.7324)"
           style="fill:#cc8a00;fill-opacity:1"><path
             d="m 0,0 c -1.481,0.548 -7.56,2.788 -8.735,3.097 -0.437,0.497 -0.443,1.09 -0.229,1.516 1.256,0.209 3.331,0.664 8.368,1.837 l 16.387,3.804 c 4.534,1.022 6.813,1.572 7.786,1.93 0.039,0.111 -0.503,0.309 -3.121,1.276 l -9.635,3.554 C 7.115,18.379 2.556,20.021 0.843,19.937 -0.021,19.876 -0.601,19.373 -1.088,18.502 L -1.54,17.741 c -0.467,-0.204 -1.393,0.177 -1.402,0.606 0.603,1.334 1.183,2.758 1.705,4.167 0.574,1.558 0.891,2.576 1.271,3.909 0.359,0.203 1.226,-0.029 1.462,-0.454 L 1.442,25.063 C 1.379,24.285 1.282,23.564 1.979,23.012 3.331,21.964 7.628,20.38 11.53,18.941 l 11.712,-4.319 c 3.853,-1.422 4.631,-1.752 6.526,-1.02 0.595,0.245 1.376,1.134 1.714,1.599 l 0.353,0.501 c 0.392,0.151 1.367,-0.25 1.376,-0.676 -0.715,-1.335 -1.418,-3.39 -1.758,-4.318 C 31.166,9.933 30.886,9.022 30.657,8.096 28.298,8.25 20.584,6.508 18.23,5.904 L 11.526,4.168 C 8.679,3.45 2.172,1.934 1.737,1.674 1.846,1.51 2.092,1.417 2.884,1.127 l 9.632,-3.557 c 3.706,-1.366 8.265,-3.006 9.994,-2.884 0.864,0.058 1.427,0.524 1.918,1.395 l 0.462,0.798 c 0.469,0.207 1.396,-0.177 1.406,-0.602 -0.631,-1.409 -1.185,-2.762 -1.719,-4.204 -0.588,-1.595 -0.894,-2.577 -1.288,-3.946 -0.355,-0.207 -1.223,0.029 -1.461,0.453 l 0.069,0.943 c 0.061,0.778 0.148,1.462 -0.548,2.011 -1.34,1.085 -5.64,2.672 -9.542,4.112 z"
             style="fill:#cc8a00;fill-opacity:1;fill-rule:nonzero;stroke:none"
             id="path147" /></g><g
           id="g149"
           transform="translate(501.0498,284.5908)"
           style="fill:#cc8a00;fill-opacity:1"><path
             d="m 0,0 8.032,4.408 -3.928,7.155 2.911,1.595 3.926,-7.155 7.247,3.978 1.9,-3.462 L 12.841,2.54 16.766,-4.612 13.858,-6.21 9.932,0.945 1.899,-3.463 Z"
             style="fill:#cc8a00;fill-opacity:1;fill-rule:nonzero;stroke:none"
             id="path151" /></g><g
           id="g153"
           transform="translate(515.6816,258.2793)"
           style="fill:#cc8a00;fill-opacity:1"><path
             d="M 0,0 C 0.394,1.255 2.858,3.972 5.394,6.03 5.953,6.183 6.421,5.704 6.339,5.225 4.73,2.959 1.76,-2.283 4.235,-5.259 c 1.918,-2.308 4.87,-2.065 7.337,-0.011 2.309,1.922 3.491,4.291 3.297,7.98 l -0.115,2.114 c -0.193,3.693 0.609,7.752 4.252,10.781 4.007,3.334 9.276,3.916 12.965,-0.515 1.313,-1.577 1.788,-3.137 2.607,-4.866 C 33.969,9.147 31.547,6.623 29.644,5.037 29.153,4.887 28.658,5.4 28.716,5.908 c 1.727,2.207 3.554,5.528 1.409,8.108 -2.021,2.428 -4.96,1.678 -7.106,-0.107 -1.699,-1.413 -2.789,-3.81 -2.54,-6.993 L 20.708,3.925 C 20.976,0.805 20.283,-3.469 16.194,-6.869 11.578,-10.709 6.102,-10.795 2.44,-6.394 0.117,-3.602 0.018,-1.013 0,0"
             style="fill:#cc8a00;fill-opacity:1;fill-rule:nonzero;stroke:none"
             id="path155" /></g><g
           id="g157"
           transform="translate(555.7432,256.3203)"
           style="fill:#cc8a00;fill-opacity:1"><path
             d="M 0,0 C 1.57,1.559 1.616,1.66 0.894,2.387 L -0.662,3.958 C -3.221,6.541 -4.384,6.889 -8.441,4.922 -8.86,4.896 -9.33,5.6 -9.068,6.081 c 2.493,1.526 5.228,3.401 6.73,4.505 0.169,0.052 0.317,-0.023 0.456,-0.162 0.112,-0.111 0.184,-0.262 0.127,-0.428 C -2.551,8.93 -2.197,8.499 -0.307,6.592 L 11.038,-4.852 c 1.361,-1.374 1.892,-1.683 3.086,-1.169 0.186,-0.035 0.371,-0.076 0.483,-0.187 0.167,-0.168 0.231,-0.381 0.174,-0.55 -1.812,-1.24 -5.249,-4.202 -6.363,-5.472 -0.438,-0.159 -0.984,0.245 -0.974,0.756 2.555,3.258 2.738,4.496 -0.237,7.495 L 5.621,-2.38 C 4.897,-1.649 4.797,-1.697 3.224,-3.253 l -16.157,-16.015 c -3.963,-3.931 -3.825,-4.294 -2.703,-5.8 l 0.851,-1.155 c -0.066,-0.458 -0.77,-1.094 -1.141,-1.021 -1.537,1.7 -2.75,3 -3.974,4.234 -1.225,1.235 -2.57,2.515 -4.423,4.239 -0.073,0.371 0.649,1.14 1.03,1.129 l 1.355,-0.992 c 1.528,-1.095 1.818,-1.312 5.782,2.619 z"
             style="fill:#cc8a00;fill-opacity:1;fill-rule:nonzero;stroke:none"
             id="path159" /></g><g
           id="g161"
           transform="translate(546.6416,227.1484)"
           style="fill:#cc8a00;fill-opacity:1"><path
             d="M 0,0 C 1.259,1.488 3.092,1.939 4.234,0.967 5.351,0.023 5.207,-1.854 3.948,-3.343 2.689,-4.83 0.86,-5.281 -0.256,-4.338 -1.402,-3.366 -1.259,-1.487 0,0"
             style="fill:#cc8a00;fill-opacity:1;fill-rule:nonzero;stroke:none"
             id="path163" /></g><g
           id="g165"
           transform="translate(575.2588,224.624)"
           style="fill:#cc8a00;fill-opacity:1"><path
             d="m 0,0 c -3.768,-6.212 -6.913,-15.884 -1.139,-19.388 3.849,-2.335 9.276,-0.394 14.766,8.656 4.126,6.796 6.609,16.07 1.24,19.326 C 11.493,10.643 5.819,9.589 0,0 m 18.711,-12.709 c -5.379,-8.869 -14.46,-12.413 -21.279,-8.274 -7.633,4.63 -7.678,14.45 -2.815,22.463 5.571,9.185 14.692,12.952 21.783,8.649 7.799,-4.734 7.283,-14.644 2.311,-22.838"
             style="fill:#cc8a00;fill-opacity:1;fill-rule:nonzero;stroke:none"
             id="path167" /></g><g
           id="g169"
           transform="translate(601.8975,199.0566)"
           style="fill:#cc8a00;fill-opacity:1"><path
             d="m 0,0 c -1.04,-2.418 -1.715,-4.192 -1.523,-5.249 0.142,-0.863 0.556,-1.502 3.46,-2.748 4.031,-1.731 4.713,-1.736 8.523,2.528 0.468,0.086 0.986,-0.307 1.001,-0.773 -1.162,-1.906 -3.541,-5.242 -4.538,-6.36 -1.484,0.749 -4.583,2.14 -8.647,3.886 l -3.774,1.619 c -1.852,0.798 -3.687,1.528 -5.252,2.086 -0.207,0.319 0.101,1.333 0.528,1.433 l 1.194,-0.226 c 1.871,-0.344 2.219,-0.435 4.382,4.597 l 7.731,17.999 c 2.162,5.033 1.898,5.318 0.335,6.389 L 2.489,25.81 c -0.15,0.351 0.265,1.32 0.676,1.374 1.772,-0.877 3.384,-1.627 5.054,-2.343 1.596,-0.687 3.25,-1.341 4.888,-1.929 0.245,-0.335 -0.136,-1.317 -0.531,-1.435 l -0.881,0.149 c -1.871,0.345 -2.24,0.387 -4.401,-4.643 z"
             style="fill:#cc8a00;fill-opacity:1;fill-rule:nonzero;stroke:none"
             id="path171" /></g><g
           id="g173"
           transform="translate(631.3271,195.6611)"
           style="fill:#cc8a00;fill-opacity:1"><path
             d="m 0,0 c 1.071,-0.271 1.25,-0.207 1.253,1.094 l -0.05,6.534 c -0.003,2.881 0.051,3.898 -0.05,4.305 l -0.077,0.02 C 0.833,11.632 0.165,10.445 -1.095,8.212 L -4.218,2.647 C -4.978,1.264 -4.9,1.243 -3.98,1.012 Z m -5.179,-1.129 c -0.995,0.251 -0.954,0.241 -1.65,-1.051 l -3.124,-5.723 c -1.529,-2.82 -1.402,-2.959 -0.063,-3.625 l 1.044,-0.538 c 0.177,-0.423 -0.094,-1.333 -0.451,-1.459 -1.199,0.414 -2.465,0.734 -4.02,1.183 -1.263,0.32 -2.462,0.57 -3.829,0.807 -0.205,0.324 -0.048,1.1 0.336,1.493 l 1.213,-0.039 c 1.177,-0.025 1.702,0.276 2.704,1.816 0.796,1.209 1.951,3.197 3.456,5.75 l 9.856,16.838 c 0.874,1.518 1.569,2.646 1.673,3.541 1.431,0.019 3.227,1.789 3.302,1.769 0.308,-0.078 0.46,-0.277 0.549,-0.573 0.028,-2.451 -0.084,-4.976 -0.056,-7.43 l 0.085,-22.786 c 0.014,-3.642 0.128,-3.998 1.95,-5.004 l 0.537,-0.297 c 0.214,-0.437 -0.007,-1.305 -0.34,-1.492 -1.542,0.502 -2.945,0.911 -4.937,1.417 -1.646,0.418 -3.356,0.744 -4.709,1.034 -0.242,0.331 -0.048,1.262 0.261,1.51 l 0.881,-0.063 c 1.442,-0.094 1.711,0.164 1.681,2.453 L 1.135,-4.2 c 0.004,1.465 -0.148,1.506 -1.219,1.777 z"
             style="fill:#cc8a00;fill-opacity:1;fill-rule:nonzero;stroke:none"
             id="path175" /></g><g
           id="g177"
           transform="translate(660.3096,209.8027)"
           style="fill:#cc8a00;fill-opacity:1"><path
             d="M 0,0 C 2.501,-0.361 4.699,-0.627 5.531,-0.642 5.366,-1.79 4.8,-5.699 4.523,-8.159 4.307,-8.552 3.589,-8.555 3.243,-8.187 c 0.049,3.083 -0.357,4.684 -1.769,5.419 -1.001,0.519 -1.972,0.711 -3.223,0.893 l -1.993,0.289 c -1.641,0.237 -1.655,0.133 -2.079,-2.786 l -1.352,-9.326 c -0.189,-1.303 -0.167,-1.415 0.734,-1.544 l 2.305,-0.336 c 3.403,-0.493 4.002,-0.472 4.709,1.661 l 0.572,1.724 c 0.287,0.332 1.03,0.222 1.166,-0.221 -0.238,-1.349 -0.596,-3.266 -0.874,-5.194 -0.281,-1.929 -0.474,-3.816 -0.668,-5.438 -0.256,-0.389 -1,-0.279 -1.18,0.118 l -0.02,2.078 c -0.035,2.24 -0.642,2.433 -4.045,2.926 l -2.305,0.336 c -0.901,0.128 -0.952,0.03 -1.143,-1.27 l -1.056,-7.298 c -0.803,-5.526 -0.458,-5.629 1.334,-6.205 l 1.604,-0.501 c 0.221,-0.403 0.045,-1.336 -0.3,-1.499 -2.483,0.466 -4.237,0.775 -5.955,1.023 -1.721,0.249 -3.486,0.452 -5.299,0.609 -0.283,0.251 -0.185,1.197 0.142,1.522 l 0.883,0.033 c 1.881,0.046 2.254,0.151 3.054,5.675 l 2.812,19.389 c 0.801,5.524 0.473,5.73 -1.312,6.362 l -0.496,0.179 c -0.218,0.402 -0.045,1.336 0.3,1.499 1.351,-0.302 3.102,-0.611 4.822,-0.86 z"
             style="fill:#cc8a00;fill-opacity:1;fill-rule:nonzero;stroke:none"
             id="path179" /></g><g
           id="g181"
           transform="translate(698.8437,199.3906)"
           style="fill:#cc8a00;fill-opacity:1"><path
             d="m 0,0 c -0.28,-0.419 -0.992,-0.469 -1.267,-0.1 -0.654,3.322 -2.416,7.698 -7.629,7.721 -5.013,0.022 -10.09,-4.696 -10.135,-15.491 -0.049,-11.214 5.181,-16.715 10.276,-16.735 4.978,-0.022 7.169,4.392 8.286,7.811 0.359,0.471 0.99,0.258 1.185,-0.218 -0.291,-3.524 -1.372,-6.997 -1.928,-7.994 -0.475,-0.104 -0.951,-0.311 -1.386,-0.47 -0.868,-0.363 -3.597,-1.248 -6.165,-1.235 -3.912,0.017 -7.264,1.083 -10.097,3.57 -3.187,2.805 -5.577,7.608 -5.547,14.506 0.025,6.159 2.101,10.943 5.035,13.931 2.935,2.935 6.931,4.448 10.92,4.43 C -6.201,9.717 -3.478,9.18 -1.622,8.537 -1.15,8.378 -0.875,8.325 -0.521,8.218 -0.444,7.005 -0.379,3.899 0,0"
             style="fill:#cc8a00;fill-opacity:1;fill-rule:nonzero;stroke:none"
             id="path183" /></g><g
           id="g185"
           transform="translate(710.4521,193.7754)"
           style="fill:#cc8a00;fill-opacity:1"><path
             d="m 0,0 c 1.481,-7.114 5.777,-16.333 12.39,-14.959 4.407,0.92 7.055,6.041 4.899,16.402 C 15.67,9.229 11.162,17.704 5.015,16.425 1.147,15.621 -2.285,10.982 0,0 M 22.354,3.467 C 24.468,-6.689 20.243,-15.475 12.434,-17.099 3.693,-18.918 -3.038,-11.767 -4.946,-2.59 -7.137,7.928 -3.032,16.904 5.09,18.594 14.02,20.452 20.403,12.852 22.354,3.467"
             style="fill:#cc8a00;fill-opacity:1;fill-rule:nonzero;stroke:none"
             id="path187" /></g><g
           id="g189"
           transform="translate(748.0127,193.3184)"
           style="fill:#cc8a00;fill-opacity:1"><path
             d="m 0,0 c 0.934,-2.464 1.678,-4.206 2.549,-4.834 0.706,-0.521 1.444,-0.692 4.4,0.429 4.102,1.553 4.596,2.024 4.372,7.739 0.279,0.385 0.926,0.461 1.258,0.141 0.489,-2.182 1.094,-6.235 1.154,-7.729 C 12.146,-4.744 8.95,-5.898 4.814,-7.467 L 0.973,-8.923 c -1.881,-0.714 -3.711,-1.463 -5.226,-2.149 -0.367,0.085 -0.853,1.027 -0.615,1.4 l 1.017,0.668 c 1.585,1.049 1.899,1.226 -0.042,6.344 l -6.942,18.321 c -1.94,5.119 -2.328,5.143 -4.195,4.83 l -1.107,-0.196 c -0.353,0.15 -0.726,1.133 -0.467,1.457 1.881,0.602 3.565,1.183 5.261,1.826 1.625,0.616 3.271,1.295 4.858,2.009 0.407,-0.071 0.818,-1.043 0.615,-1.399 l -0.738,-0.505 c -1.588,-1.052 -1.881,-1.279 0.059,-6.398 z"
             style="fill:#cc8a00;fill-opacity:1;fill-rule:nonzero;stroke:none"
             id="path191" /></g><g
           id="g193"
           transform="translate(768.9189,201.8389)"
           style="fill:#cc8a00;fill-opacity:1"><path
             d="m 0,0 c 1.144,-2.372 2.038,-4.043 2.961,-4.595 0.748,-0.457 1.5,-0.563 4.346,0.813 3.948,1.904 4.403,2.416 3.681,8.089 0.242,0.408 0.878,0.543 1.241,0.25 0.678,-2.13 1.634,-6.113 1.823,-7.601 -1.538,-0.625 -4.621,-2.052 -8.607,-3.977 l -3.7,-1.782 c -1.813,-0.877 -3.568,-1.782 -5.017,-2.598 -0.375,0.054 -0.94,0.952 -0.736,1.341 l 0.954,0.752 c 1.489,1.189 1.788,1.387 -0.594,6.323 l -8.509,17.641 c -2.38,4.933 -2.769,4.92 -4.602,4.445 l -1.09,-0.29 c -0.36,0.119 -0.821,1.067 -0.589,1.413 1.823,0.761 3.447,1.486 5.082,2.277 1.566,0.754 3.145,1.57 4.664,2.423 0.412,-0.034 0.904,-0.967 0.734,-1.342 l -0.689,-0.566 c -1.492,-1.188 -1.764,-1.437 0.616,-6.37 z"
             style="fill:#cc8a00;fill-opacity:1;fill-rule:nonzero;stroke:none"
             id="path195" /></g><g
           id="g197"
           transform="translate(776.4277,226.5283)"
           style="fill:#cc8a00;fill-opacity:1"><path
             d="M 0,0 C -3.101,4.641 -3.514,4.619 -5.232,3.849 L -5.815,3.585 c -0.438,0.152 -0.93,0.964 -0.786,1.315 1.308,0.747 2.879,1.735 4.326,2.701 l 6.272,4.191 c 2.102,1.404 3.975,2.721 4.344,3.092 0.631,-0.656 3.138,-3.985 4.595,-5.736 C 13.037,8.711 12.439,8.184 12,8.274 9.778,10.462 8.583,11.184 7.269,10.873 6.338,10.633 5.265,10.104 4.38,9.515 L 2.177,8.044 C 0.766,7.1 0.826,7.012 2.492,4.516 l 4.946,-7.401 c 0.761,-1.137 0.823,-1.158 1.576,-0.652 l 1.579,1.052 c 2.857,1.91 3.319,2.282 2.358,4.361 L 12.186,3.52 c 0.056,0.483 0.68,0.898 1.079,0.66 0.756,-1.206 1.743,-2.827 2.828,-4.447 1.109,-1.663 2.201,-3.153 3.171,-4.531 0.041,-0.416 -0.583,-0.835 -1.023,-0.747 l -1.399,1.599 c -1.46,1.683 -2.078,1.398 -4.933,-0.511 L 10.331,-5.51 C 9.575,-6.015 9.604,-6.124 10.334,-7.221 l 3.717,-5.557 c 1.492,-2.235 2.61,-3.768 3.601,-4.181 0.802,-0.353 1.565,-0.285 4.355,1.514 4.199,2.747 4.102,4.453 2.883,8.768 0.089,0.504 0.733,0.744 1.223,0.439 1.034,-1.969 2.535,-5.781 2.864,-7.269 -1.5,-0.88 -4.357,-2.722 -8.198,-5.29 l -3.743,-2.502 c -1.446,-0.965 -3.42,-2.347 -4.838,-3.425 -0.382,0.002 -0.939,0.766 -0.917,1.228 l 1.099,0.988 c 1.396,1.249 1.605,1.577 -1.494,6.218 z"
             style="fill:#cc8a00;fill-opacity:1;fill-rule:nonzero;stroke:none"
             id="path199" /></g><g
           id="g201"
           transform="translate(825.9443,238.2002)"
           style="fill:#cc8a00;fill-opacity:1"><path
             d="M 0,0 C 1.25,-1.353 2.326,-2.228 3.199,-2.063 3.428,-2.14 3.716,-2.447 3.705,-2.67 3.388,-2.965 3.008,-3.602 2.599,-4.267 c -1.26,-2.242 -3.006,-4.716 -4.66,-6.245 -3.479,-3.218 -7.902,-5.01 -12.864,-4.006 -3.892,0.778 -7.735,3.247 -10.738,6.497 -3.004,3.245 -5.237,7.349 -5.735,11.551 -0.623,4.805 1.002,9.39 5.032,13.115 1.363,1.258 3.128,2.32 4.393,2.988 0.848,0.422 1.83,1.044 2.179,1.368 1.1,-1.136 3.128,-2.918 6.062,-5.802 0.212,-0.519 -0.391,-1.146 -0.859,-0.934 -4.104,3.16 -7.878,3.115 -10.752,0.458 -5.101,-4.718 -3.028,-11.908 3.051,-18.48 2.861,-3.093 6.457,-5.937 10.31,-6.962 3.855,-1.027 6.923,0.306 8.635,1.887 1.391,1.286 1.949,2.373 1.76,3.274 -0.147,0.51 -0.704,1.286 -1.991,2.68 l -1.289,1.391 c -2.536,2.744 -2.78,2.951 -5.116,1.58 l -1.259,-0.734 c -0.454,0.081 -1.061,0.741 -1.009,1.15 1.204,0.967 2.632,2.216 4.631,4.066 1.306,1.204 2.258,2.155 3.431,3.387 0.47,0.074 1.105,-0.555 1.094,-1.07 L -3.509,6.296 C -4.367,5.069 -4.253,4.601 -2.072,2.243 Z"
             style="fill:#cc8a00;fill-opacity:1;fill-rule:nonzero;stroke:none"
             id="path203" /></g><g
           id="g205"
           transform="translate(816.959,259.7988)"
           style="fill:#cc8a00;fill-opacity:1"><path
             d="M 0,0 C -4.323,3.531 -4.711,3.391 -6.129,2.152 L -6.61,1.728 c -0.462,0.022 -1.169,0.652 -1.133,1.027 1.03,1.099 2.247,2.501 3.345,3.849 l 4.771,5.839 c 1.599,1.958 3.007,3.766 3.253,4.23 C 4.418,16.23 7.789,13.781 9.693,12.532 9.918,12.143 9.502,11.465 9.058,11.419 6.291,12.861 4.938,13.204 3.771,12.524 2.953,12.021 2.082,11.201 1.405,10.378 L -0.269,8.327 C -1.341,7.013 -1.262,6.945 1.063,5.048 L 7.955,-0.583 C 9.017,-1.45 9.082,-1.451 9.656,-0.747 l 1.199,1.468 c 2.175,2.66 2.506,3.152 0.978,4.859 l -1.209,1.347 c -0.086,0.479 0.387,1.059 0.84,0.947 1.076,-0.931 2.492,-2.19 4.003,-3.426 1.55,-1.265 3.025,-2.369 4.356,-3.404 0.159,-0.389 -0.312,-0.968 -0.758,-1.015 l -1.807,1.12 c -1.887,1.184 -2.394,0.733 -4.567,-1.927 l -1.199,-1.468 c -0.574,-0.705 -0.516,-0.803 0.502,-1.635 l 5.177,-4.233 c 2.081,-1.697 3.6,-2.835 4.668,-2.943 0.87,-0.099 1.582,0.187 3.721,2.723 3.212,3.853 2.621,5.458 0.19,9.225 -0.06,0.509 0.486,0.929 1.045,0.781 1.565,-1.584 4.112,-4.791 4.863,-6.117 -1.179,-1.279 -3.37,-3.876 -6.291,-7.455 l -2.848,-3.487 c -1.101,-1.345 -2.583,-3.245 -3.627,-4.687 -0.363,-0.113 -1.123,0.456 -1.232,0.905 l 0.761,1.263 c 0.969,1.606 1.073,1.979 -3.249,5.513 z"
             style="fill:#cc8a00;fill-opacity:1;fill-rule:nonzero;stroke:none"
             id="path207" /></g><g
           id="g209"
           transform="translate(857.1504,279.2432)"
           style="fill:#cc8a00;fill-opacity:1"><path
             d="m 0,0 -7.833,4.753 -4.235,-6.978 -2.835,1.72 4.232,6.978 -7.067,4.29 2.049,3.377 7.066,-4.289 4.235,6.977 2.837,-1.72 L -5.785,8.13 2.048,3.377 Z"
             style="fill:#cc8a00;fill-opacity:1;fill-rule:nonzero;stroke:none"
             id="path211" /></g><g
           id="g213"
           transform="translate(708.7891,386.4561)"
           style="fill:#cc8a00;fill-opacity:1"><path
             d="m 0,0 c -3.457,3.132 2.831,8.684 2.831,8.684 7.016,7.348 3.534,17.576 3.534,17.576 0,0 -3.556,7.813 0.294,9.482 3.045,1.32 4.076,4.266 -1.155,12.463 -1.682,2.637 0.574,4.818 1.937,5.501 1.08,0.54 0.727,3.092 0.227,4.581 -0.221,0.656 -0.986,2.016 -1.702,3.031 -2.135,3.026 -1.759,5.496 -1.759,5.496 v 5.091 c -0.03,5.382 -3.216,6.827 -3.216,6.827 -0.024,0.012 -0.049,0.023 -0.073,0.035 -0.437,0.206 -0.889,0.48 -1.31,0.806 -0.28,0.311 -0.562,0.619 -0.848,0.919 0.072,2.938 -0.281,6.23 -1.963,8.505 -0.36,0.488 -0.968,0.867 -1.604,0.653 -2.128,-0.719 -3.668,-2.564 -4.808,-4.602 -0.738,-0.075 -1.489,-0.028 -2.227,0.145 -1.32,0.522 -2.566,1.502 -3.911,1.866 -2.388,0.646 -4.963,0.124 -6.912,-1.344 -4.606,0.681 -9.214,2.472 -10.755,2.622 -0.658,0.064 -1.29,0.009 -1.809,-0.495 -1.268,-1.229 -2.027,-3.419 -2.413,-5.07 -0.562,-2.409 -0.791,-5.867 0.949,-7.885 1.788,-2.074 4.549,-0.2 6.402,-2.608 0.958,-1.246 1.076,-2.968 0.333,-4.353 -1.393,-2.594 -3.378,-3.188 -5.516,-2.078 -3.207,1.664 -5.865,-1.037 -5.672,-3.616 0.227,-3.033 2.748,-5.117 5.681,-5.265 0.074,-0.004 0.912,-10e-4 0.98,0.005 l 2.562,0.423 c 0.274,-0.018 0.531,-0.036 0.772,-0.055 1.236,-0.169 2.357,-0.694 3.251,-1.462 1.193,-1.619 1.003,-3.964 0.774,-5.805 -0.574,-4.629 -3.322,-6.677 -8.772,-5.794 -4.85,0.786 -9.13,-6.022 -11.841,-5.959 -2.889,0.068 -5.023,-1.254 -5.925,-1.786 -1.186,-0.7 -3.788,-0.16 -4.472,1.225 -1.392,2.824 -5.277,4.383 -9.547,5.604 -4.268,1.221 -5.576,4.658 -5.576,4.658 -0.022,0.04 -0.046,0.077 -0.064,0.115 -0.456,0.931 -1.123,1.753 -2.068,2.181 -2.85,1.294 -6.401,1.255 -9.236,0.896 l -3.192,15.399 c 1.624,0.785 2.748,2.445 2.748,4.369 0,2.617 -2.07,4.743 -4.659,4.847 l -1.089,5.252 c -0.416,1.074 -1.602,1.706 -2.848,1.437 -1.368,-0.297 -2.255,-1.568 -1.979,-2.84 l 0.611,-2.959 c -6.874,-0.683 -12.863,5.513 -15.575,8.88 -8.419,-14.617 -2.085,-33.218 7.566,-36.039 1.132,3.944 4.193,12.029 10.666,14.294 l 2.823,-13.671 -4.121,-2.82 c 0,0 -2.473,-2.298 -1.052,-4.019 0,0 1.868,-2.108 0.999,-3.39 0,0 -1.439,-2.413 -0.034,-4.631 0,0 3.051,-5.257 5.161,-5.727 l 3.387,-0.425 1.121,-5.428 -2.912,-0.992 c 0,0 -3.285,-1.246 -3.638,-4.489 0,0 -0.241,-1.514 0.606,-3.318 0,0 1.669,-2.595 1.288,-7.927 -0.231,-3.243 3.225,-4.824 3.225,-4.824 0,0 1.28,-0.89 5.973,-0.439 l 1.324,-6.412 4.969,1.04 -1.294,6.24 0.321,0.057 c 0.907,0.16 1.787,0.44 2.636,0.797 2.383,1.001 4.387,1.007 6.649,0.04 0.564,-0.242 1.186,-0.338 1.795,-0.258 0.595,0.079 0.96,0.259 0.96,0.259 4.522,2.241 4.985,0.822 6.349,0.473 0.421,-0.107 0.853,-0.233 1.284,-0.277 4.377,-0.44 5.116,1.515 5.116,1.515 0.902,2.106 2.626,2.153 2.626,2.153 2.696,0.202 2.918,-5.083 2.918,-5.083 0.782,-8.989 11.292,-10.613 11.292,-10.613 2.174,-0.418 4.081,-1.072 5.698,-1.795 4.409,-1.973 8.004,-5.452 10.083,-9.812 1.044,-2.187 1.384,-3.933 1.432,-5.21 0.073,-1.854 -1.853,-3.09 -3.507,-2.249 -0.265,0.135 -0.492,0.273 -0.652,0.397 -3.515,2.7 -8.848,3.291 -8.848,3.291 -10.281,1.765 -17.875,-5.308 -17.875,-5.308 -2.846,-2.449 -5.261,-3.379 -6.665,-3.731 -0.603,-0.152 -1.224,-0.194 -1.844,-0.185 -2.829,0.043 -2.879,-2.162 -2.879,-2.162 -0.491,-4.023 -0.765,-6.234 -0.765,-6.234 -0.812,-6.455 0.428,-8.891 0.428,-8.891 4.872,-10.896 -0.955,-13.86 -0.955,-13.86 -3.563,-1.556 -5.596,1.661 -6.446,3.553 -0.286,0.634 -0.449,1.312 -0.548,2 -0.235,1.605 -0.929,2.814 -1.552,3.611 -0.465,0.595 -1.061,1.064 -1.712,1.448 -1.877,1.108 -2.936,3.268 -3.434,4.585 -0.564,1.492 -1.262,2.933 -2.143,4.263 -2.965,4.471 -5.5,4.78 -5.5,4.78 -3.486,0.638 -5.559,-3.292 -5.559,-3.292 1.326,-1.01 1.422,-1.783 1.422,-1.783 0.539,-1.91 -1.805,-7.956 -1.805,-7.956 -1.325,-2.631 -0.101,-3.615 -0.101,-3.615 0.392,-0.415 0.746,-0.898 1.048,-1.367 0.634,-0.985 1.036,-2.095 1.249,-3.246 0.48,-2.594 1.543,-3.081 1.543,-3.081 4.216,-2.958 4.341,-5.868 4.341,-5.868 1.29,-4.507 3.528,-3.992 3.528,-3.992 3.491,0.855 4.535,0.731 4.535,0.731 9.573,-0.402 16.104,-5.499 16.104,-5.499 2.426,-1.63 3.884,-0.041 3.884,-0.041 2.019,1.939 2.918,2.476 2.918,2.476 5.754,3.033 4.217,8.918 4.217,8.918 -2.041,9.06 3.25,12.139 3.25,12.139 4.376,2.642 6.439,0.071 6.439,0.071 2.86,-2.813 -0.359,-6.43 -0.909,-7.815 -2.359,-5.944 1.84,-9.663 2.627,-10.616 0.472,-0.572 0.468,-1.494 0.389,-2.141 -0.149,-1.225 0.181,-2.479 1.012,-3.391 0.774,-0.85 1.647,-1.19 1.647,-1.19 0,0 4.238,-1.576 5.263,-4.897 1.58,-5.116 5.989,-5.633 8.915,-7.63 1.208,-0.824 3.529,-3.475 1.25,-7.21 -1.937,-3.174 -7.395,-3.947 -8.988,-4.108 -0.476,-0.047 -0.947,-0.155 -1.38,-0.357 -1.095,-0.509 -1.567,-1.264 -1.567,-1.264 -0.123,-0.205 -0.293,-0.431 -0.485,-0.66 -0.811,-0.969 -1.832,-1.742 -2.966,-2.302 l -3.347,-1.653 c -3.391,-1.557 -5.459,-4.254 -6.603,-6.258 -1.014,-1.776 -1.557,-3.794 -1.458,-5.837 0.093,-1.937 0.249,-7.266 3.071,-4.686 1.661,1.516 4.071,1.414 6.019,1.316 1.385,-0.068 2.778,0.08 4.101,0.493 2.693,0.842 4.714,-0.045 6.859,-0.187 2.602,-0.172 4.674,1.224 4.674,1.224 2.206,1.406 4.018,0.704 4.018,0.704 5.227,-2.001 5.497,6.198 5.497,6.198 v 4.476 c 0,5.52 7.579,10.437 7.579,10.437 0,0 4.341,2.369 4.559,7.962 0.219,5.594 -4.52,9.058 -4.52,9.058 -4.696,3.848 -7.618,7.497 -7.618,7.497 5.786,5.138 9.554,10.333 12.02,14.808 l 3.474,29.855 C 8.503,-25.758 10.072,-9.126 0,0"
             style="fill:#cc8a00;fill-opacity:1;fill-rule:nonzero;stroke:none"
             id="path215" /></g><g
           id="g217"
           transform="translate(718.6445,353.0518)"
           style="fill:#cc8a00;fill-opacity:1"><path
             d="m 0,0 -3.475,-29.854 c 0.017,0.03 0.036,0.061 0.052,0.091 1.064,8.875 2.551,21.365 3.476,29.462 C 0.034,-0.204 0.018,-0.1 0,0"
             style="fill:#cc8a00;fill-opacity:1;fill-rule:nonzero;stroke:none"
             id="path219" /></g><g
           id="g221"
           transform="translate(667.8877,458.5117)"
           style="fill:#cc8a00;fill-opacity:1"><path
             d="M 0,0 C -12.617,0.549 -9.895,9.887 -10.126,9.678 -16.6,3.812 -11.026,-1.978 -5.959,-2.15 0.97,-2.387 4.051,-0.76 10.726,-5.374 l 0.727,-0.008 C 7.092,-0.266 0.001,0 0,0"
             style="fill:#cc8a00;fill-opacity:1;fill-rule:nonzero;stroke:none"
             id="path223" /></g><g
           id="g225"
           transform="translate(628.543,415.208)"
           style="fill:#cc8a00;fill-opacity:1"><path
             d="m 0,0 0.896,-4.062 c 0,0 2.209,-0.59 3.977,0 1.768,0.588 5.745,0.441 5.745,0.441 l 2.945,0.147 c 0,0 -5.375,0.957 -8.376,2.378 -0.897,0.425 -1.986,0.428 -2.958,0.631 z"
             style="fill:#cc8a00;fill-opacity:1;fill-rule:nonzero;stroke:none"
             id="path227" /></g><g
           id="g229"
           transform="translate(766.9629,461.4385)"
           style="fill:#cc8a00;fill-opacity:1"><path
             d="m 0,0 c -1.149,7.758 -8.816,12.041 -15.795,12.263 -2.078,0.065 -4.046,-0.071 -5.776,-0.388 -1.104,-0.202 -2.112,-0.478 -2.987,-0.824 -4.13,-1.633 -6.857,-3.422 -9.43,-8.19 -1.013,-1.876 -1.606,-3.885 -2.179,-5.828 l -0.042,-0.143 c -0.18,-0.611 -0.403,-1.37 -0.647,-2.112 -0.534,-1.621 -1.199,-3.314 -2.018,-5.139 0.446,-0.06 0.995,-0.11 1.634,-0.13 1.15,-0.036 3.368,-0.004 5.271,0.683 0.723,0.261 1.926,1.082 2.998,2.707 1.513,-2.56 4.139,-3.077 4.139,-3.077 -1.664,5.185 -0.897,8.574 -0.897,8.574 0.717,4.489 2.899,10.664 7.885,11.696 3.713,0.768 7.986,-0.578 10.613,-3.987 2.304,-2.992 2.343,-5.314 1.858,-8.078 -1.169,-6.663 -6.967,-12.539 -11.547,-18.087 -0.621,-0.753 -1.243,-1.485 -1.9,-2.259 -5.418,-6.382 -14.828,-14.358 -15.055,-30.789 -0.143,-10.376 4.118,-16.023 6.549,-25.906 2.413,-9.815 2.053,-12.163 1.413,-16.805 -0.304,-2.208 -0.831,-4.252 -1.467,-6.529 -1.175,-4.199 -3.657,-7.381 -6.513,-9.229 -0.16,-0.104 -0.321,-0.201 -0.483,-0.294 -2.351,-1.349 -4.832,-1.581 -6.548,-1.526 -1.079,0.034 -1.955,0.19 -2.28,0.288 l -0.03,0.008 c -0.937,0.298 -1.821,0.722 -2.645,1.267 -0.411,0.271 -0.777,0.6 -1.121,0.952 -0.133,0.136 -0.273,0.265 -0.396,0.41 l -0.006,0.008 c -1.502,2.271 -1.4,8.053 -2.069,14.657 l -8.213,-18.383 5.891,-24.051 c 2.809,5.535 4.288,12.151 4.557,13.362 0.081,-0.016 0.157,-0.028 0.236,-0.043 0.66,-0.123 1.246,-0.203 1.697,-0.218 l 0.018,-0.001 c 0.151,-0.005 0.303,-0.011 0.452,-0.016 h 10e-4 c 8.6,-0.273 12.646,2.124 17.106,6.642 2.701,2.737 4.642,5.875 5.934,9.596 1.071,3.084 1.664,6.505 1.818,10.416 0.012,0.315 0.028,0.627 0.035,0.948 0.167,8.117 -1.543,16.815 -3.197,25.226 -0.112,0.57 -0.224,1.14 -0.335,1.706 -1.316,6.729 -4.026,14.45 -0.759,23.476 3.429,9.47 4.847,11.378 11.663,20.547 0.778,1.047 1.628,2.192 2.561,3.454 3.769,5.1 6.767,9.671 8.5,13.875 C -0.149,-5.98 0.432,-2.916 0,0"
             style="fill:#cc8a00;fill-opacity:1;fill-rule:nonzero;stroke:none"
             id="path231" /></g><g
           id="g233"
           transform="translate(682.9834,158.5732)"
           style="fill:#cc8a00;fill-opacity:1"><path
             d="m 0,0 c -46.755,0.084 -92.721,14.642 -130.828,41.78 -36.48,25.98 -64.879,62.938 -80.495,104.911 -16.693,44.862 -18.652,94.79 -5.477,140.816 12.465,43.55 38.187,82.612 72.988,111.569 35.473,29.518 80.102,47.605 126.116,51.113 47.077,3.59 94.568,-7.575 134.921,-32.14 38.042,-23.16 68.765,-57.644 87.493,-98.037 20.138,-43.437 25.806,-93.187 16.157,-140.072 C 211.671,135.223 188.732,94.009 155.766,62.456 122.662,30.772 80.108,9.718 34.826,2.644 23.31,0.844 11.653,0.021 0,0 -3.586,-0.007 -3.592,-5.58 0,-5.573 47.923,-5.487 95.293,9.458 134.273,37.42 c 37.443,26.858 66.363,64.597 82.425,107.79 17.057,45.869 18.913,97.161 5.362,144.179 -12.828,44.5 -39.21,84.629 -74.906,114.126 -36.586,30.232 -82.123,48.638 -129.457,52.248 -48.118,3.669 -96.875,-7.932 -138.065,-33.105 -38.88,-23.761 -70.455,-59.137 -89.489,-100.543 -20.493,-44.577 -26.278,-95.172 -16.475,-143.248 9.353,-45.873 33.055,-88.33 66.909,-120.623 C -125.615,25.995 -82.104,4.338 -35.896,-2.795 -24.014,-4.629 -12.021,-5.552 0,-5.573 3.587,-5.58 3.592,-0.007 0,0"
             style="fill:#cc8a00;fill-opacity:1;fill-rule:nonzero;stroke:none"
             id="path235" /></g></g></g></g></svg>
